<svg id="Layer_1" data-name="Layer 1" xmlns="http://www.w3.org/2000/svg" viewBox="0 0 1000 500"><defs><style>.cls-1{fill:#f0f;}</style></defs><title>hero-bg-purple</title><path class="cls-1" d="M948.72,33C880.09-6.63,791.19,57.6,722.21,177.09c-8.09,14-30.17,39.53-44,42.76-11.6,2.7-19,1.93-23.55-1.5,20.93-83.13,7-156.65-41.86-184.86C544.16-6.14,455.27,58.09,386.28,177.58c-8.08,14-30.16,39.53-44,42.76-77.55,18.08,53.41-139.08-41.17-186.85C230.37-2.24,120.92,58.61,51.93,178.1s-69.28,243.77-.65,283.39,147.14,1.5,216.13-118c8.09-14,36.6-59.25,54.39-64.15,10.36-2.85,17.61-3.23,22.57-1.62-24.53,83.82-15.44,157.84,34,186.37,68.63,39.63,156-1.6,225-121.09,8.08-14,36.6-59.25,54.38-64.15,83.56-23-63.62,151.31,47.72,189.2,75,25.53,173.64-27.47,242.63-147S1017.35,72.62,948.72,33Z"/></svg>