<?xml version="1.0" encoding="utf-8"?>
<!-- Generator: Adobe Illustrator 24.0.1, SVG Export Plug-In . SVG Version: 6.00 Build 0)  -->
<svg version="1.1" id="Layer_1" xmlns="http://www.w3.org/2000/svg" xmlns:xlink="http://www.w3.org/1999/xlink" x="0px" y="0px"
	 viewBox="0 0 1000 750" style="enable-background:new 0 0 1000 750;" xml:space="preserve">
<style type="text/css">
	.st0{fill:#FF00FF;}
</style>
<path class="st0" d="M818.5,241.5c-11.7,20.3-53,85.9-78.8,93c-40.8,11.2-45.6-4.3-40.3-33.7c0.1-0.3,0.1-0.6,0.2-1
	c19.5-107.1-3-198.9-67.5-236.1c-99.5-57.4-213.3,4.7-313.3,177.8c-11.7,20.3-53,85.9-78.8,93c-40.4,11.1-45.5-4-40.5-32.9
	c0.6-3.6,1.1-7.3,1.4-10.9c16.6-103.2-6.4-190.8-69.1-227C89.7,39.4,45,36.5,0,54.3V646c51.6-35.8,103.3-89.2,146.4-164
	c11.7-20.3,43.7-57.3,63.8-62c112.4-26.2-77.4,201.6,59.7,270.8c1.8,0.9,3.6,1.7,5.4,2.5c5.8,3.1,11.9,5.5,18.2,7.3
	c105.5,30.2,252.8-45.5,352.8-218.6c11.7-20.3,43.7-57.3,63.8-62c112.4-26.2-77.4,201.6,59.7,270.8c26,13.1,55.6,17.2,86.9,13.3
	c42.4-4.8,92.9-22.9,143.5-58V54.3C938.5,78.6,876.2,141.5,818.5,241.5L818.5,241.5z"/>
</svg>
