<?xml version="1.0" encoding="utf-8"?>
<!-- Generator: Adobe Illustrator 24.0.1, SVG Export Plug-In . SVG Version: 6.00 Build 0)  -->
<svg version="1.1" id="Layer_1" xmlns="http://www.w3.org/2000/svg" xmlns:xlink="http://www.w3.org/1999/xlink" x="0px" y="0px"
	 viewBox="0 0 828.5 1082.1" style="enable-background:new 0 0 828.5 1082.1;" xml:space="preserve">
<title>hero-mobile</title>
<path d="M3.5,205.4v-89.8c26.5,13.6,81.8,23.7,131.2,23.7c29.2,0,65.4-4.9,85.3-11.5l-2.1-9c-24,4.9-58.5,8.3-83.2,8.3
	C49.8,127,0,107.6,0,65.1C0,16,55.3,0,225.2,0c57.1,0,119.7,5.2,182,15.3v86.3C380.4,89.8,325.4,81.1,276,81.1
	c-30.3,0-67.9,4.9-88.8,11.8l2.1,9c24.4-4.9,60.9-8.7,86.7-8.7c88.4,0,134.7,21.6,134.7,62.7c0,50.5-47,65.1-207.8,65.1
	C138.5,221,63.7,214.4,3.5,205.4z"/>
<path d="M824.9,121.1v94.7H619.5l-3.5-20.9h-3.5c-26.1,16-54,26.1-103.7,26.1c-71.4,0-91.2-20.5-91.2-48.7
	c0-58.5,84.9-61.6,198-61.6c-0.7-10.4-5.2-14.6-28.2-14.6H428.1V12.2C485.9,7,584,0,655.7,0C769.2,0,824.9,17.1,824.9,121.1z
	 M616.1,169.9v-34.8c-1.6-0.3-3.2-0.4-4.9-0.4c-8,0-9,7-9,18.4s1,18.4,8.3,18.4C612.5,171.6,614.4,171,616.1,169.9z"/>
<path d="M407.2,379.1v97.5H3.5v-97.5h111.4v-13.9H3.5v-97.5h313.2v111.4H407.2z M316.7,253.8H114.9v-20.9h201.9V253.8z"/>
<path d="M606,391.2c116.2,0,187.2-7.3,215.5-10.4V471c-41.8,3.8-129.1,10.8-215.5,10.8c-128.8,0-188.3-9-188.3-61.3
	c0-21.6,15.3-42.8,59.9-49.4c-42.1-6.3-59.9-18.8-59.9-43.2c0-41.1,57.1-67.2,205.7-67.2c57.4,0,101.3,4.2,133.3,11.1v-8
	c0-27.1,11.8-35.9,31-35.9c19.8,0,28.9,8.7,28.9,25.4c0,22.6-21.2,27.1-39.3,27.1h-2.8v3.8c38.6,3.5,54,15.3,54,36.5
	c0,50.5-78,56.4-205,56.4h-20.3c-102.3,0-110.3,0.4-110.3,5.9C492.9,389.9,507.5,391.2,606,391.2z M614,327.6
	c0,11.5,4.9,14.6,9.4,14.6c4.2,0,9.4-3.1,9.4-14.6s-5.2-14.6-9.4-14.6C618.8,312.9,614,316.1,614,327.6z"/>
<path d="M0,632.1C0,558,58.1,521.5,205.4,521.5c148.3,0,205.4,36.9,205.4,110.7c0,73.1-56,110.3-205.4,110.3S0,705.2,0,632.1z
	 M214.4,630.1c0-25.4-4.5-28.5-8.7-28.5c-4.5,0-8.7,3.1-8.7,28.5s4.2,28.5,8.7,28.5C209.9,658.6,214.4,655.5,214.4,630.1z"/>
<path d="M824.9,639.8v97.5H421.1v-97.5h111.4v-13.9H421.1v-97.5h313.3v111.4H824.9z M734.4,514.5H532.5v-20.9h201.9V514.5z"/>
<path d="M407.2,900.5V998H3.5v-97.5h111.4v-13.9H3.5v-97.5h313.2v111.4H407.2z M316.7,775.2H114.9v-20.9h201.9V775.2z"/>
<path d="M452.3,994.4c45.9,13,95.6-13.6,137.5-79.4c4.9-7.7,18.3-21.8,26.7-23.6c47.1-10-32.4,76.7,25,103
	c42.9,19.7,109.3-13.8,151.2-79.7s42-137,0.4-158.8s-89.3,1.8-131.1,67.6c-4.9,7.7-22.2,32.7-33,35.4c-50.7,12.7,38.6-82.1-29-103
	c-45.5-14.1-105.4,13.8-147.2,79.7S404.4,980.8,452.3,994.4z"/>
<path d="M115.7,1039.1v41.5H60.3v-33.1c0-1.3-0.3-2.8-1.7-2.8c-0.8,0-1.6,0.2-2.3,0.6v35.3H1v-69.2h55.3v23.7h1
	c7.4-10.5,18.1-15.8,31.9-15.8C105.1,1019.3,115.7,1022.3,115.7,1039.1z"/>
<path d="M234.3,1052.9v27.7H119.6v-27.7h31.6v-4h-31.6v-27.7h89v31.6L234.3,1052.9z M208.6,1017.3h-57.3v-5.9h57.3V1017.3z"/>
<path d="M296.3,1068.3v12.3h-58v-59.3h57l1,14.3h1c7.3-10.4,19.2-16.5,31.9-16.3c16.1,0,24.7,8.1,24.7,24.4
	C353.9,1061.3,343.8,1068.2,296.3,1068.3z M300.8,1053.3c0-4.9-0.3-8.1-2.7-8.1c-0.7,0-1.3,0.2-1.9,0.6v15.6h0.9
	C299.6,1061.4,300.8,1058.8,300.8,1053.3L300.8,1053.3z"/>
<path d="M384.1,1035.3h65.2v21.8h-65.2V1035.3z"/>
<path d="M590.1,1039.1v41.5h-55.4v-33.1c0-1.3-0.3-2.8-1.7-2.8c-0.8,0-1.6,0.2-2.3,0.6v35.3h-55.3v-69.2h55.4v23.7h1
	c7.4-10.5,18.1-15.8,31.9-15.8C579.6,1019.3,590.1,1022.3,590.1,1039.1z"/>
<path d="M593.1,1050.8c0-21,16.5-31.4,58.3-31.4c42.1,0,58.3,10.5,58.3,31.4c0,20.8-15.9,31.3-58.3,31.3S593.1,1071.5,593.1,1050.8z
	 M654,1050.2c0-7.2-1.3-8.1-2.5-8.1s-2.5,0.9-2.5,8.1s1.2,8.1,2.5,8.1S654,1057.4,654,1050.2z"/>
<path d="M770.8,1068.3v12.3h-58v-59.3h57l1,14.3h1c7.3-10.4,19.2-16.5,31.9-16.3c16.1,0,24.7,8.1,24.7,24.4
	C828.4,1061.3,818.3,1068.2,770.8,1068.3z M775.3,1053.3c0-4.9-0.3-8.1-2.7-8.1c-0.7,0-1.3,0.2-1.9,0.6v15.6h0.9
	C774.1,1061.4,775.3,1058.8,775.3,1053.3L775.3,1053.3z"/>
</svg>
