<svg id="Layer_1" data-name="Layer 1" xmlns="http://www.w3.org/2000/svg" viewBox="0 0 828.38 1160.14"><title>hero-mobile</title><path d="M3.48,205.36v-89.8c26.45,13.57,81.79,23.67,131.22,23.67,29.24,0,65.44-4.88,85.27-11.49l-2.08-9c-24,4.87-58.48,8.35-83.19,8.35C49.77,127,0,107.55,0,65.09,0,16,55.34,0,225.2,0c57.08,0,119.73,5.22,182,15.31v86.32C380.43,89.8,325.44,81.1,276,81.1c-30.28,0-67.87,4.87-88.75,11.83l2.09,9c24.36-4.87,60.9-8.7,86.66-8.7,88.41,0,134.7,21.58,134.7,62.65,0,50.47-47,65.09-207.79,65.09C138.53,221,63.69,214.4,3.48,205.36Z"/><path d="M824.9,121.13V215.8H619.54l-3.48-20.88h-3.48c-26.1,16-54,26.1-103.72,26.1-71.35,0-91.19-20.54-91.19-48.73,0-58.47,84.92-61.61,198-61.61-.69-10.44-5.22-14.62-28.19-14.62H428.11V12.18C485.88,7,584,0,655.74,0,769.21,0,824.9,17.06,824.9,121.13ZM616.06,169.85v-34.8a26.31,26.31,0,0,0-4.87-.35c-8,0-9.05,7-9.05,18.45s1,18.44,8.35,18.44A9.58,9.58,0,0,0,616.06,169.85Z"/><path d="M407.23,379.07v97.46H3.48V379.07H114.86V365.15H3.48V267.69H316.73V379.07Zm-90.5-125.3H114.86V232.89H316.73Z"/><path d="M606,391.25c116.25,0,187.25-7.31,215.45-10.44V471c-41.77,3.83-129.13,10.79-215.45,10.79-128.79,0-188.3-9.05-188.3-61.26,0-21.58,15.31-42.81,59.86-49.42-42.11-6.27-59.86-18.8-59.86-43.17,0-41.07,57.08-67.17,205.7-67.17,57.43,0,101.29,4.18,133.31,11.14v-8c0-27.15,11.83-35.85,31-35.85,19.84,0,28.89,8.7,28.89,25.41,0,22.62-21.23,27.15-39.33,27.15h-2.78v3.83c38.63,3.48,54,15.31,54,36.54,0,50.47-78,56.39-205,56.39H603.18c-102.33,0-110.33.35-110.33,5.92C492.85,389.86,507.46,391.25,606,391.25Zm8-63.69c0,11.48,4.87,14.62,9.4,14.62,4.18,0,9.4-3.14,9.4-14.62s-5.22-14.62-9.4-14.62C618.84,312.94,614,316.07,614,327.56Z"/><path d="M0,632.14C0,558,58.13,521.46,205.36,521.46c148.27,0,205.35,36.9,205.35,110.68,0,73.1-56,110.34-205.35,110.34S0,705.24,0,632.14Zm214.4-2.08c0-25.41-4.52-28.55-8.7-28.55-4.52,0-8.7,3.14-8.7,28.55s4.18,28.54,8.7,28.54C209.88,658.6,214.4,655.46,214.4,630.06Z"/><path d="M824.9,639.8v97.46H421.15V639.8H532.53V625.88H421.15V528.42H734.4V639.8ZM734.4,514.5H532.53V493.62H734.4Z"/><path d="M407.23,900.53V998H3.48V900.53H114.86V886.61H3.48V789.15H316.73V900.53Zm-90.5-125.3H114.86V754.35H316.73Z"/><path d="M452.26,994.39c45.91,13,95.58-13.56,137.45-79.43,4.9-7.72,18.3-21.79,26.7-23.57,47.06-10-32.41,76.67,25,103,42.92,19.7,109.34-13.84,151.2-79.71s42-137,.39-158.82-89.28,1.77-131.14,67.64c-4.91,7.72-22.22,32.66-33,35.36-50.7,12.69,38.61-82.11-29-103-45.52-14.07-105.37,13.85-147.23,79.72S404.41,980.85,452.26,994.39Z"/><path d="M115.66,1039.09v41.52H60.3v-33.12c0-1.29-.3-2.77-1.68-2.77a4.12,4.12,0,0,0-2.27.59v35.3H1v-69.2H56.35v23.72h1c7.42-10.48,18.09-15.81,31.93-15.81C105.08,1019.32,115.66,1022.28,115.66,1039.09Z"/><path d="M234.28,1052.93v27.68H119.61v-27.68h31.63v-4H119.61v-27.68h89v31.64Zm-25.7-35.59H151.24v-5.93h57.34Z"/><path d="M296.26,1068.35v12.26h-58v-59.32h57l1,14.34h1a38.24,38.24,0,0,1,31.93-16.31c16.11,0,24.71,8.1,24.71,24.41C353.89,1061.33,343.81,1068.25,296.26,1068.35Zm4.55-15c0-4.94-.3-8.1-2.67-8.1a3.43,3.43,0,0,0-1.88.59v15.62h.89C299.62,1061.43,300.81,1058.76,300.81,1053.32Z"/><path d="M384.14,1035.33h65.24v21.75H384.14Z"/><path d="M590.14,1039.09v41.52H534.79v-33.12c0-1.29-.3-2.77-1.68-2.77a4.18,4.18,0,0,0-2.28.59v35.3H475.48v-69.2h55.35v23.72h1c7.42-10.48,18.09-15.81,31.93-15.81C579.57,1019.32,590.14,1022.28,590.14,1039.09Z"/><path d="M593.11,1050.75c0-21,16.51-31.43,58.32-31.43,42.11,0,58.33,10.48,58.33,31.43,0,20.76-15.92,31.34-58.33,31.34S593.11,1071.51,593.11,1050.75Zm60.89-.59c0-7.22-1.28-8.11-2.47-8.11s-2.47.89-2.47,8.11,1.19,8.1,2.47,8.1S654,1057.37,654,1050.16Z"/><path d="M770.75,1068.35v12.26h-58v-59.32h57l1,14.34h1a38.26,38.26,0,0,1,31.93-16.31c16.12,0,24.72,8.1,24.72,24.41C828.38,1061.33,818.29,1068.25,770.75,1068.35Zm4.54-15c0-4.94-.29-8.1-2.67-8.1a3.42,3.42,0,0,0-1.87.59v15.62h.89C774.11,1061.43,775.29,1058.76,775.29,1053.32Z"/><path d="M0,1124.55C0,1097.47,17.69,1088,58.32,1088s58.33,9.49,58.33,36.57c0,26.1-17.8,35.59-58.33,35.59S0,1150.65,0,1124.55Zm68.41,0c0-1.18-.89-2.47-10.09-2.47s-10.08,1.19-10.08,2.47.89,2.37,10.08,2.37S68.41,1125.84,68.41,1124.55Z"/><path d="M234.28,1131v27.68H119.61V1131h34.6v-4h-34.6v-27.68c26.79,0,34.6-2.47,34.6-9.88h59.31V1131Z"/><path d="M283.21,1133.94h24.71v24.72H283.21Z"/><path d="M471.52,1126.43v32.23H356.85v-7.42c0-23.33,16.81-26,48.15-26,8.5,0,9.58-.79,9.58-5.24,0-3.36-.59-5-2.37-5-2.17,0-2.57,2.47-2.57,4.65v1.68H356.36c0-16.41,11.47-33.31,59.9-33.31,33.32,0,56.25,3.55,56.25,22.24,0,17.4-18.09,24.12-38.35,24.12a165.87,165.87,0,0,1-23.53-1.78l-.59,3.56a137,137,0,0,0,24.31,2C454.52,1138.09,467.37,1131.47,471.52,1126.43Z"/><path d="M474.49,1124.55c0-27.08,17.69-36.57,58.32-36.57s58.32,9.49,58.32,36.57c0,26.1-17.79,35.59-58.32,35.59S474.49,1150.65,474.49,1124.55Zm68.4,0c0-1.18-.89-2.47-10.08-2.47s-10.08,1.19-10.08,2.47.89,2.37,10.08,2.37S542.89,1125.84,542.89,1124.55Z"/><path d="M708.77,1126.43v32.23H594.1v-7.42c0-23.33,16.8-26,48.14-26,8.5,0,9.59-.79,9.59-5.24,0-3.36-.6-5-2.38-5-2.17,0-2.57,2.47-2.57,4.65v1.68H593.6c0-16.41,11.47-33.31,59.91-33.31,33.31,0,56.25,3.55,56.25,22.24,0,17.4-18.09,24.12-38.36,24.12a166,166,0,0,1-23.53-1.78l-.59,3.56a137,137,0,0,0,24.32,2C691.76,1138.09,704.61,1131.47,708.77,1126.43Z"/><path d="M711.73,1124.55c0-27.08,17.7-36.57,58.32-36.57s58.33,9.49,58.33,36.57c0,26.1-17.8,35.59-58.33,35.59S711.73,1150.65,711.73,1124.55Zm68.41,0c0-1.18-.89-2.47-10.09-2.47s-10.08,1.19-10.08,2.47.89,2.37,10.08,2.37S780.14,1125.84,780.14,1124.55Z"/></svg>