<?xml version="1.0" encoding="utf-8"?>
<!-- Generator: Adobe Illustrator 24.0.1, SVG Export Plug-In . SVG Version: 6.00 Build 0)  -->
<svg version="1.1" id="Layer_1" xmlns="http://www.w3.org/2000/svg" xmlns:xlink="http://www.w3.org/1999/xlink" x="0px" y="0px"
	 viewBox="0 0 3000 500" style="enable-background:new 0 0 3000 500;" xml:space="preserve">
<style type="text/css">
	.st0{fill:#FF00FF;}
	.st1{fill:#6F7F6F;}
	.st2{fill:#FF6F00;}
</style>
<g>
	<path class="st0" d="M948.7,33C880.1-6.6,791.2,57.6,722.2,177.1c-8.1,14-30.2,39.5-44,42.8c-11.6,2.7-19,1.9-23.6-1.5
		c20.9-83.1,7-156.6-41.9-184.9C544.2-6.1,455.3,58.1,386.3,177.6c-8.1,14-30.2,39.5-44,42.8c-77.6,18.1,53.4-139.1-41.2-186.9
		C230.4-2.2,120.9,58.6,51.9,178.1c-69,119.5-69.3,243.8-0.6,283.4c68.6,39.6,147.1,1.5,216.1-118c8.1-14,36.6-59.2,54.4-64.2
		c10.4-2.9,17.6-3.2,22.6-1.6c-24.5,83.8-15.4,157.8,34,186.4c68.6,39.6,156-1.6,225-121.1c8.1-14,36.6-59.2,54.4-64.2
		c83.6-23-63.6,151.3,47.7,189.2c75,25.5,173.6-27.5,242.6-147C1017.1,201.6,1017.3,72.6,948.7,33z"/>
	<path class="st1" d="M1948.7,33c-68.6-39.6-157.5,24.6-226.5,144.1c-8.1,14-30.2,39.5-44,42.8c-11.6,2.7-19,1.9-23.6-1.5
		c20.9-83.1,7-156.6-41.9-184.9c-68.6-39.6-157.5,24.6-226.5,144.1c-8.1,14-30.2,39.5-44,42.8c-77.6,18.1,53.4-139.1-41.2-186.9
		c-70.7-35.7-180.2,25.1-249.2,144.6c-69,119.5-69.3,243.8-0.6,283.4c68.6,39.6,147.1,1.5,216.1-118c8.1-14,36.6-59.2,54.4-64.2
		c10.4-2.9,17.6-3.2,22.6-1.6c-24.5,83.8-15.4,157.8,34,186.4c68.6,39.6,156-1.6,225-121.1c8.1-14,36.6-59.2,54.4-64.2
		c83.6-23-63.6,151.3,47.7,189.2c75,25.5,173.6-27.5,242.6-147C2017.1,201.6,2017.3,72.6,1948.7,33z"/>
	<path class="st2" d="M2948.7,33c-68.6-39.6-157.5,24.6-226.5,144.1c-8.1,14-30.2,39.5-44,42.8c-11.6,2.7-19,1.9-23.6-1.5
		c20.9-83.1,7-156.6-41.9-184.9c-68.6-39.6-157.5,24.6-226.5,144.1c-8.1,14-30.2,39.5-44,42.8c-77.6,18.1,53.4-139.1-41.2-186.9
		c-70.7-35.7-180.2,25.1-249.2,144.6c-69,119.5-69.3,243.8-0.6,283.4c68.6,39.6,147.1,1.5,216.1-118c8.1-14,36.6-59.2,54.4-64.2
		c10.4-2.9,17.6-3.2,22.6-1.6c-24.5,83.8-15.4,157.8,34,186.4c68.6,39.6,156-1.6,225-121.1c8.1-14,36.6-59.2,54.4-64.2
		c83.6-23-63.6,151.3,47.7,189.2c75,25.5,173.6-27.5,242.6-147C3017.1,201.6,3017.3,72.6,2948.7,33z"/>
</g>
</svg>
