<?xml version="1.0" encoding="utf-8"?>
<!-- Generator: Adobe Illustrator 24.0.1, SVG Export Plug-In . SVG Version: 6.00 Build 0)  -->
<svg version="1.1" id="Layer_1" xmlns="http://www.w3.org/2000/svg" xmlns:xlink="http://www.w3.org/1999/xlink" x="0px" y="0px"
	 viewBox="0 0 1000 2100" style="enable-background:new 0 0 1000 2100;" xml:space="preserve">
<style type="text/css">
	.st0{fill:#6F7F6F;}
	.st1{fill:#FF00FF;}
	.st2{fill:#FF6F00;}
</style>
<path id="XMLID_284_" class="st0" d="M922.8,717.5c-103.3-59.2-237.2,36.8-341.1,215.4c-12.2,20.9-45.4,59.1-66.3,63.9
	c-116.8,27,80.4-207.9-62-279.4c-106.5-53.4-271.3,37.6-375.2,216.2c-103.9,178.7-104.3,364.5-1,423.7
	c103.3,59.2,221.6,2.2,325.5-176.4c12.2-20.9,55.1-88.6,81.9-95.9c125.8-34.4-95.8,226.2,71.9,282.9
	c113,38.2,261.5-41.1,365.4-219.7C1025.7,969.6,1026.1,776.7,922.8,717.5z"/>
<path id="XMLID_1_" class="st1" d="M922.8,17.5C819.4-41.8,685.6,54.3,581.7,232.9c-12.2,20.9-45.4,59.1-66.3,63.9
	c-116.8,27,80.4-207.9-62-279.4C346.9-35.9,182.1,55.1,78.2,233.7c-103.9,178.7-104.3,364.5-1,423.7
	c103.3,59.2,221.6,2.2,325.5-176.4c12.2-20.9,55.1-88.6,81.9-95.9c125.8-34.4-95.8,226.2,71.9,282.9
	c113,38.2,261.5-41.1,365.4-219.7C1025.7,269.6,1026.1,76.7,922.8,17.5z"/>
<path id="XMLID_2_" class="st2" d="M922.8,1417.5c-103.3-59.2-237.2,36.8-341.1,215.4c-12.2,20.9-45.4,59.1-66.3,63.9
	c-116.8,27,80.4-207.9-62-279.4c-106.5-53.4-271.3,37.6-375.2,216.2c-103.9,178.7-104.3,364.5-1,423.7
	c103.3,59.2,221.6,2.2,325.5-176.4c12.2-20.9,55.1-88.6,81.9-95.9c125.8-34.4-95.8,226.2,71.9,282.9
	c113,38.2,261.5-41.1,365.4-219.7C1025.7,1669.6,1026.1,1476.7,922.8,1417.5z"/>
</svg>
