<?xml version="1.0" encoding="utf-8"?>
<!-- Generator: Adobe Illustrator 24.0.1, SVG Export Plug-In . SVG Version: 6.00 Build 0)  -->
<svg version="1.1" id="Layer_1" xmlns="http://www.w3.org/2000/svg" xmlns:xlink="http://www.w3.org/1999/xlink" x="0px" y="0px"
	 viewBox="0 0 2955.8 261.2" style="enable-background:new 0 0 2955.8 261.2;" xml:space="preserve">
<g id="XMLID_2301_">
	<g id="XMLID_2994_">
		<path id="XMLID_3013_" d="M97.1,87.8c0,0,16-0.7,20.4-20.6c3.9-17.6-14.4-38.1-41-38.1c-19,0-43.1,9-51.5,35.4
			c-5.4,16.8,3.7,38.5,27.7,41.2c0,0-16.9,5.2-29.1-12.5c0,0-20.4,5.8-23.3,29.5c-3.6,29.4,24.4,34.7,46.7,34.6
			c28.2-0.2,52.9-15.4,57.1-41.8c3.5-22.3-29.9-37.4-29.9-37.4S88,79.7,97.1,87.8z"/>
		<path id="XMLID_3012_" d="M162.8,156.5c0,0,27.7-76,39-76s-18.4,76-18.4,76H162.8z"/>
		<g id="XMLID_3010_">
			<path id="XMLID_3011_" d="M181,80.5c-4.9,0-12.9,14.4-20.4,30.6c0.7-0.5,1.3-0.8,1.9-0.8c1.7,0-1.6,4-5,7.8
				c-8.4,19.1-15.5,38.4-15.5,38.4h20.6C162.6,156.5,192.3,80.5,181,80.5z"/>
		</g>
		<path id="XMLID_3009_" d="M315.8,156.5c0,0,27.7-76,39-76s-18.4,76-18.4,76H315.8z"/>
		<path id="XMLID_3008_" d="M336.6,156.5c0,0,27.7-76,39-76s-18.4,76-18.4,76H336.6z"/>
		<path id="XMLID_3007_" d="M168.4,125c0,0-5.1,22.1,5.6,9.7c10.7-12.4-1.7,21-1.7,21h-10.3L168.4,125z"/>
		<ellipse id="XMLID_3006_" transform="matrix(0.5 -0.866 0.866 0.5 68.236 201.1102)" cx="208.3" cy="41.5" rx="13.5" ry="7.8"/>
		<path id="XMLID_3005_" d="M387.5,29.8c-3.7-2.1-8.5,1.3-12.2,7.8c-0.4,0.8-1.6,2.1-2.4,2.3c-4.2,1,2.9-7.5-2.2-10.1
			c-3.8-1.9-9.7,1.4-13.5,7.8c-3.7,6.5-3.7,13.4,0,15.6c3.7,2.1,8-0.2,11.7-6.6c0.4-0.8,2-3.2,2.9-3.5c4.5-1.2-3.4,8.1,2.6,10.1
			c4.1,1.4,9.4-1.4,13.1-7.8C391.2,38.9,391.3,31.9,387.5,29.8z"/>
		<path id="XMLID_3004_" d="M261.9,135.3c0,0-23.5,59.7-83.5,99.4s-120,32.5-119.7-6.5c0.6-75.7,133.2-95.3,106-28.8
			c-12.3,29.9,68.5-26.1,80-65.8S261.9,135.3,261.9,135.3z"/>
		<path id="XMLID_3001_" d="M142.7,80.5c-27.6,0-42.1,31.1-42.1,31.1c-9.4,20.9-4.4,46.7,25.5,45.8c26.6-0.8,38.7-27.9,41.8-43
			C169.9,104.8,170.3,80.5,142.7,80.5z M150.8,125c0,0,7.8-14.7,11.7-14.8C165.6,110.2,150.8,125,150.8,125z"/>
		<path id="XMLID_2998_" d="M240.5,80.5c-27.6,0-42.1,31.1-42.1,31.1c-9.4,20.9-4.4,46.7,25.5,45.8c26.6-0.8,38.7-27.9,41.8-43
			C267.8,104.8,268.2,80.5,240.5,80.5z M243.5,125c0,0,7.8-14.7,11.7-14.8C258.3,110.2,243.5,125,243.5,125z"/>
		<path id="XMLID_2995_" d="M306.8,80.5c-27.6,0-42.1,31.1-42.1,31.1c-9.4,20.9-4.4,46.7,25.5,45.8c26.6-0.8,38.7-27.9,41.8-43
			C334.1,104.8,334.5,80.5,306.8,80.5z M308.8,125c0,0,7.8-14.7,11.7-14.8C323.6,110.2,308.8,125,308.8,125z"/>
	</g>
	<g id="XMLID_2906_">
		<path id="XMLID_2990_" d="M762.4,124.9c-3.7,2.7-7.4,5-11.7,6.9c3.3,1.5,6.1,3.1,8.7,4.9c0.7,0.5,1.4,1,2.1,1.5
			c0.7,0.5,1,0.4,1-0.5c-0.1-1.1,0.5-1.4,1.5-1.4c5.2,0,10.4,0,15.6,0c1.6,0,1.6,1,1.6,2.1c0,19.7,0,39.4,0,59.1c0,1.6,0,3.2,0,4.8
			c0,1-0.3,1.5-1.4,1.5c-5.3,0-10.6,0-15.9,0c-1.1,0-1.4-0.5-1.4-1.5c0-1.2,0-2.3,0-3.5c0-0.3,0-0.8-0.2-1c-0.4-0.3-0.7,0.1-1,0.3
			c-4.1,2.7-8.5,4.5-13.3,5.5c-20.6,4.3-41.4-10.2-44.3-30.9c-2.5-17.5,6.7-33.6,22.9-40.4c0.3-0.1,0.6-0.3,1.2-0.6
			c-0.7-0.3-1.3-0.6-1.8-0.8c-12.8-5.9-20.5-15.7-22.4-29.8c-2.7-20.1,11.7-39,31.6-41.6c9.3-1.2,17.9,0.6,25.8,5.7
			c0.4,0.3,0.8,0.9,1.3,0.6c0.4-0.3,0.2-0.9,0.2-1.4c0-1,0-2,0-3c0-0.9,0.3-1.3,1.2-1.3c5.4,0,10.8,0,16.2,0c0.8,0,1.2,0.4,1.2,1.2
			c0,0.4,0,0.8,0,1.2c0,20.8,0,41.7,0,62.5c0,2.3,0,2.3-2.3,2.3c-4.6,0-9.3,0-13.9,0C762.7,127.5,762.7,127.5,762.4,124.9
			 M740.5,180.2c7.3,0,13.2-5.7,13.3-12.8c0-7.3-5.7-13.1-12.7-13.4c-6.7-0.2-13.6,4.8-13.6,13.2
			C727.6,175.8,734.6,180.3,740.5,180.2 M740.6,109.8c7.3,0,13.2-5.8,13.2-13.1c0-7.2-5.8-12.9-13-13.1c-6.4-0.1-13.2,4.6-13.2,13
			C727.4,104.7,734.1,109.9,740.6,109.8"/>
		<path id="XMLID_2923_" d="M578.8,131.9c-3-1.2-5.6-2.5-8.1-4.2c-9.3-6.4-14.8-15.3-16.2-26.4c-2.6-20.2,11.8-38.9,31.8-41.6
			c9.2-1.2,17.8,0.6,25.7,5.6c0.4,0.3,0.8,0.9,1.3,0.5c0.2-0.2,0.2-0.8,0.2-1.3c0-4.3,0-4.3,4.4-4.3c4.2,0,8.4,0,12.5,0
			c1.3,0,1.6,0.4,1.6,1.7c0,21.3,0,42.6,0,63.9c0,1.3-0.4,1.8-1.7,1.7c-5.1-0.1-10.2,0-15.3,0c-1,0-1.7-0.2-1.6-1.4
			c0-0.7-0.3-1-0.9-0.5c-3.3,2.4-6.8,4.5-10.7,6.3c2.5,1.2,4.8,2.4,7,3.8c1.2,0.8,2.4,1.6,3.6,2.5c0.5,0.4,1,0.7,1-0.3
			c0-1.2,0.7-1.4,1.7-1.4c5.1,0,10.2,0,15.3,0c1.2,0,1.7,0.4,1.7,1.7c0,21.3,0,42.7,0,64c0,1.3-0.4,1.8-1.7,1.8
			c-5-0.1-10.1,0-15.1,0c-1.3,0-1.8-0.5-1.8-1.8c0.1-1.1,0-2.1,0-3.2c0-1-0.2-1.3-1.2-0.7c-4.5,3-9.5,5-14.9,5.8
			c-13.2,1.8-24.4-2.2-33.5-12c-5.3-5.7-8.3-12.6-9.3-20.3c-1.9-15.2,5.6-30.4,19.8-37.8C575.6,133.3,577,132.7,578.8,131.9
			 M604.6,167.1c0-7.4-5.7-13-13.2-13c-7.3,0-13.1,5.9-13,13.2c0,7.2,5.9,13,13.2,13C598.9,180.2,604.6,174.5,604.6,167.1
			 M604.7,96.7c0-7.3-5.7-13.1-12.9-13.1c-7.4-0.1-13.3,5.7-13.3,12.9c0,7.3,5.7,13.2,13,13.3C598.8,109.8,604.6,104.1,604.7,96.7"
			/>
		<path id="XMLID_2920_" d="M975.1,104.1c-7,0-14.1,0-21.1,0c-0.5,0-1.1-0.3-1.4,0.3c-0.2,0.5,0.3,0.9,0.6,1.3
			c2,2.4,4.8,3.6,7.8,4.2c5,0.9,9.8,0.4,14.2-2.5c0.5-0.3,1-0.7,1.4-1.2c0.9-1.2,1.8-1.3,3.2-0.4c5,3,10.1,5.9,15.2,8.8
			c1.1,0.6,1.4,1.1,0.5,2.3c-6.2,8.5-14.7,12.9-25,14c-8.5,0.9-16.8-0.1-24.5-4.1c-10.5-5.5-16.6-14.2-18.4-25.9
			c-1.6-10.6,0.4-20.4,6.9-29c6.2-8.1,14.6-12.4,24.7-13.5c8.7-1,16.9,0.6,24.2,5.5c8.5,5.7,13.3,13.8,15,23.8
			c0.9,5,0.8,9.9-0.2,14.8c-0.2,1.3-0.8,1.6-2,1.6C989.2,104.1,982.1,104.1,975.1,104.1 M963.4,86.2c3.4,0,6.8,0,10.2,0
			c0.5,0,1.2,0.3,1.5-0.2c0.3-0.5-0.3-1-0.6-1.5c-2.5-4.2-7.8-6.4-13.1-5.6c-4,0.6-7.4,2.2-9.5,5.9c-0.6,1-0.5,1.4,0.8,1.4
			C956.4,86.2,959.9,86.2,963.4,86.2"/>
		<path id="XMLID_2917_" d="M974.9,180.4c-7,0-14.1,0-21.1,0c-0.4,0-1-0.2-1.3,0.2c-0.3,0.5,0.3,0.9,0.6,1.3
			c1.3,1.6,2.9,2.8,4.9,3.5c4.5,1.5,9,1.8,13.5,0.3c2.2-0.7,4.1-1.9,5.7-3.6c0.5-0.6,1-0.8,1.8-0.3c5.4,3.2,10.9,6.3,16.4,9.4
			c0.9,0.5,0.9,1,0.3,1.8c-5.9,8.3-14.1,12.9-24.1,14.1c-7.1,0.9-14.2,0.5-21-2c-13.1-4.8-20.7-14.2-23-27.9
			c-1.5-9.4,0-18.3,5.1-26.4c5.6-9,13.9-14.1,24.3-15.8c9.8-1.6,19-0.1,27.2,5.7c8.1,5.7,12.6,13.7,14.3,23.3
			c0.9,5,0.8,9.9-0.2,14.8c-0.2,1.3-0.8,1.6-2,1.6C989.1,180.3,982,180.4,974.9,180.4 M963.5,162.4c3.6,0,7.1,0,10.7,0
			c1.2,0,1.2-0.4,0.7-1.3c-1.4-2.6-3.6-4.3-6.4-5.2c-2.7-0.9-5.4-1-8.2-0.5c-3.6,0.7-6.5,2.4-8.3,5.7c-0.6,1-0.3,1.3,0.8,1.3
			C956.4,162.3,959.9,162.4,963.5,162.4"/>
		<path id="XMLID_2916_" d="M695.9,131.9c0,23.7,0,47.4,0,71.1c0,2.4,0,2.4-2.4,2.4c-6.2,0-12.4,0-18.6,0c-2.1,0-2.1,0-2.1-2.1
			c0-21,0-42.1,0-63.1V61.3c0-0.5,0-1,0-1.5c-0.1-1.2,0.5-1.7,1.7-1.7c3.4,0,6.7,0,10.1,0c3.1,0,6.1,0,9.2,0c2,0,2,0.1,2,2
			c0,11.6,0,23.3,0,34.9V131.9z"/>
		<path id="XMLID_2915_" d="M664.2,131.9c0,23.8,0,47.5,0,71.3c0,2.2,0,2.2-2.2,2.2c-6.2,0-12.5,0-18.7,0c-1.4,0-1.9-0.3-1.9-1.8
			c0-47.9,0-95.8,0-143.7c0-1.5,0.6-1.9,2-1.8c6.2,0,12.5,0,18.7,0c2.2,0,2.2,0,2.2,2.2C664.2,84.2,664.2,108,664.2,131.9"/>
		<path id="XMLID_2914_" d="M856.2,170.9c-0.3-15.4,9-29.5,23.8-34.7c17-6,36.3,0.3,45,16c0.6,1.2,0.5,1.7-0.6,2.3
			c-6,3.4-12,6.9-18,10.5c-1.2,0.7-1.7,0.5-2.2-0.7c-2.4-5.2-7.6-7-12.3-6.7c-6.9,0.5-10.9,5.6-11.7,10.6c-0.7,4.8,0.2,9,3.6,12.5
			c5.3,5.5,17.5,4.7,20.4-3.4c0.4-1.1,0.9-1.2,1.9-0.6c6.1,3.5,12.2,7,18.4,10.5c1,0.6,1.3,1,0.6,2.1c-6.2,10.9-15.6,16.9-27.9,18.3
			c-10.2,1.1-19.4-1.3-27.5-7.7c-7.7-6-12-14.1-13.3-23.7c-0.1-0.9-0.2-1.8-0.3-2.7C856.2,172.6,856.2,171.7,856.2,170.9"/>
		<path id="XMLID_2913_" d="M786.7,167.3c0.4-11.6,6.8-23.2,20.6-29.8c17.2-8.2,38.7-2.4,48.1,14.4c0.7,1.3,0.6,1.9-0.7,2.6
			c-6,3.4-12,6.9-17.9,10.4c-1.1,0.6-1.7,0.6-2.2-0.6c-2.2-5.5-8.7-7.8-14.6-6.4c-5.7,1.4-9.6,6.3-9.6,12.3
			c-0.1,7.3,3.6,12.5,10.2,13.7c5.8,1.1,11.8-0.9,14.1-6.6c0.4-1.1,0.9-1.2,1.9-0.6c6.1,3.5,12.2,7,18.3,10.5
			c1.1,0.6,1.1,1.3,0.6,2.3c-5.2,9.2-13,15.1-23.2,17.3c-13.5,2.9-25.6-0.1-35.5-10.1C789.8,189.6,786.6,180.8,786.7,167.3"/>
		<path id="XMLID_2912_" d="M786.7,94.6c-0.4-16.9,11-31.6,27-35.7c15-3.8,30.7,1.1,39.7,13.6c0.9,1.2,1.6,2.5,2.3,3.7
			c0.5,0.8,0.3,1.3-0.5,1.7c-6.3,3.6-12.6,7.3-18.8,10.9c-0.9,0.5-1.3,0.2-1.6-0.6c-2.3-5.1-6.6-7.1-11.9-7
			c-6.7,0.1-12.1,5.4-12.4,12.2c-0.2,4.7,1,8.8,4.8,11.8c5.7,4.6,16.7,3.4,19.6-4.4c0.3-0.9,0.8-1,1.6-0.6
			c6.3,3.6,12.6,7.2,18.9,10.8c0.9,0.5,0.8,1,0.4,1.8c-5.6,10.1-14.2,16.2-25.6,18.1c-11,1.8-21.1-0.5-30-7.5
			c-7.4-5.9-11.6-13.7-13.1-23.1C786.7,98.5,786.7,96.6,786.7,94.6"/>
		<path id="XMLID_2911_" d="M856.1,94.6c0.4-14.7,6.6-26,19.9-33c4.9-2.6,10.1-3.8,15.7-3.9c13.4-0.3,24,4.7,31.9,15.7
			c0.6,0.8,1,1.7,1.6,2.6c0.7,1,0.4,1.6-0.6,2.2c-4.9,2.8-9.8,5.6-14.6,8.5c-1.2,0.7-2.5,1.4-3.6,2.1c-0.9,0.6-1.5,0.5-2-0.6
			c-2.3-4.9-6.4-7-11.6-6.9c-9.6,0.2-13.6,8.1-12.6,15.2c0.9,6.6,4.4,10.2,10.6,11.3c5.2,0.9,11.3-1.1,13.5-6.6c0.5-1.2,1-1.2,2-0.6
			c6.1,3.5,12.2,7,18.4,10.5c1,0.6,1.1,1,0.6,2c-5.9,10.3-14.7,16.4-26.4,18.1c-13,1.8-24.2-1.8-33.2-11.5c-5.2-5.5-8-12.2-9.1-19.7
			C856.3,98.2,856.2,96.4,856.1,94.6"/>
		<path id="XMLID_2910_" d="M1092.2,131.1c-8.2-0.1-15.1-1.4-21.2-5.6c-4.2-2.8-7.2-6.6-9.4-11.2c-0.5-1-0.2-1.4,0.6-1.9
			c5.8-3.3,11.7-6.6,17.4-9.9c1.2-0.7,1.6-0.4,2,0.8c2,6.4,7.6,7.7,13.1,6.6c0.6-0.1,1.2-0.3,1.6-0.8c0.9-0.8,0.9-1.8-0.1-2.5
			c-1.1-0.8-2.4-1.2-3.7-1.6c-5.2-1.6-10.5-2.7-15.4-5.1c-5.8-2.8-10.4-6.7-11.9-13.2c-2.5-10.4,1.7-21,12.4-25.5
			c12.1-5.2,23.9-4.4,34.6,3.7c3,2.2,5.3,5.1,7.2,8.3c0.5,0.9,0.4,1.4-0.5,1.9c-5.7,3-11.4,6.1-17,9.2c-1.2,0.6-1.7,0.5-2.3-0.7
			c-1.8-3.5-4.6-5.3-8.6-4.8c-0.5,0.1-1.1,0.2-1.6,0.4c-0.7,0.2-1.1,0.7-1.2,1.4c-0.1,0.7,0.5,1.1,1,1.4c1.8,1.1,3.8,1.5,5.8,2.1
			c4.6,1.3,9.3,2.4,13.6,4.5c6.2,3,10.5,7.6,11.8,14.6c2.2,12.3-4,22.4-16,26.1c-2.1,0.6-4.2,1.2-6.3,1.4
			C1095.7,131,1093.5,131.3,1092.2,131.1"/>
		<path id="XMLID_2909_" d="M1030.1,131.1c-7.8-0.1-15.2-1.6-21.6-6.4c-3.6-2.8-6.3-6.3-8.3-10.4c-0.4-0.8-0.3-1.3,0.5-1.7
			c6-3.4,12-6.8,18-10.2c0.9-0.5,1.2-0.2,1.5,0.7c0.5,1.4,1.1,2.8,2.1,4c2.4,2.8,5.6,3.4,9,3.3c1,0,2-0.2,2.9-0.6
			c0.7-0.3,1.4-0.7,1.4-1.6c0.1-0.9-0.6-1.3-1.2-1.7c-2.6-1.4-5.5-2-8.3-2.8c-4.6-1.3-9.1-2.8-13.3-5.2
			c-13.2-7.5-11.8-26.3-1.7-34.1c5.1-3.9,10.8-5.7,17.1-6.1c7.9-0.5,15.3,1.2,21.8,6c3.3,2.4,5.9,5.5,8,9c0.6,1,0.5,1.5-0.5,2
			c-5.7,3.1-11.4,6.1-17.1,9.3c-1,0.5-1.5,0.4-2-0.6c-0.6-1.1-1.3-2.1-2.2-3c-2.2-2.2-4.8-2.3-7.6-1.8c-0.8,0.1-1.5,0.6-1.6,1.6
			c-0.1,1,0.7,1.4,1.4,1.8c3.1,1.5,6.4,2.1,9.6,3c4,1.1,7.9,2.4,11.5,4.5c6,3.6,9.3,8.8,9.8,15.9c1.1,14-7.8,21.2-17.3,23.9
			C1038.1,130.6,1034.1,131.2,1030.1,131.1"/>
		<path id="XMLID_2908_" d="M1091.7,207.3c-7.6,0.1-14.4-1.3-20.6-5.4c-4.3-2.8-7.4-6.6-9.6-11.2c-0.4-0.9-0.3-1.4,0.6-1.9
			c5.9-3.3,11.8-6.7,17.7-10.1c0.9-0.5,1.4-0.4,1.7,0.6c1.9,6.5,7.4,8,13,6.9c0.4-0.1,0.9-0.2,1.3-0.4c1.6-0.9,1.6-2.1,0.1-3.1
			c-2.1-1.2-4.4-1.7-6.7-2.4c-4.5-1.3-8.9-2.5-13.1-4.6c-7.1-3.6-11.4-9.1-11.6-17.2c-0.3-8.4,3-15.2,10.3-19.7
			c4.4-2.7,9.2-3.9,14.3-4.3c7.4-0.6,14.2,0.8,20.5,4.8c4.1,2.6,7.2,6.1,9.7,10.2c0.5,0.9,0.4,1.4-0.5,1.9
			c-5.8,3.1-11.6,6.2-17.4,9.4c-1,0.6-1.4,0.1-1.8-0.7c-1.2-2.3-2.8-4.2-5.5-4.8c-1.5-0.3-3-0.4-4.5,0.1c-0.8,0.3-1.5,0.8-1.5,1.7
			c0,0.8,0.7,1.2,1.3,1.5c2.3,1.2,4.8,1.7,7.3,2.4c4.6,1.2,9.1,2.5,13.3,4.8c7.8,4.4,11.1,11.1,10.6,19.8c-0.4,8-4.2,13.9-11.2,17.8
			C1103.7,206.3,1097.7,207.4,1091.7,207.3"/>
		<path id="XMLID_2907_" d="M1030.5,207.3c-7.5,0.2-14.1-1.3-20.1-5.1c-4.5-2.8-7.7-6.7-10-11.4c-0.5-1-0.3-1.6,0.7-2.1
			c5.8-3.2,11.5-6.5,17.2-9.8c1.6-0.9,1.6-0.9,2.2,0.8c2.2,7,8.9,7.6,13.4,6.3c0.9-0.2,1.8-0.6,1.9-1.7c0.1-1.2-0.8-1.6-1.6-1.9
			c-3.3-1.5-6.9-2.2-10.3-3.3c-4.7-1.4-9.3-3.1-13.2-6.1c-4.4-3.5-6.9-8-7.2-13.7c-0.8-14.1,8.6-21.6,18.6-23.9
			c10.4-2.4,20.2-1,28.9,5.7c3,2.3,5.3,5.2,7.3,8.4c0.6,0.9,0.4,1.4-0.5,1.9c-5.7,3.1-11.4,6.1-17.1,9.2c-1,0.6-1.6,0.5-2.1-0.6
			c-1.7-3.4-4.3-5.4-8.3-5c-0.3,0-0.5,0-0.7,0.1c-0.9,0.3-2.1,0.4-2.3,1.6c-0.2,1.3,0.9,1.7,1.8,2.1c3.2,1.4,6.6,2,10,3
			c4.1,1.2,8.2,2.6,11.7,5c5.4,3.7,8.3,8.7,8.8,15.2c1,12.7-6.5,20.4-16.2,23.5C1038.8,206.8,1034.5,207.5,1030.5,207.3"/>
	</g>
	<g id="z96qjm.tif_19_">
		<g id="XMLID_2901_">
			<path id="XMLID_2905_" d="M1628.3,108.7c-11.6,0-22,0-32.8,0c0.5-4.2,1.1-8,1.4-11.8c0.3-4-0.8-7.5-5.2-8.7
				c-4.7-1.2-8.8,0-10.8,4.4c-1.7,3.6-2.5,7.7-3.2,11.7c-3.6,20.4-7.1,40.8-10.6,61.2c-0.2,1.4-0.4,2.8-0.5,4.2
				c-0.2,4.6,0.7,8.6,5.8,10.1c5,1.5,10.3-0.6,12.3-5.7c1.7-4.4,2.5-9.2,3.5-13.8c0.9-4.5,1.5-9,2.4-14.2c-4.1,0-7.7,0-11.8,0
				c1.5-8.8,3-16.9,4.4-25.2c14.5,0,28.7,0,43.5,0c-0.5,3.1-0.8,6-1.3,8.8c-4.2,23.7-8.4,47.4-12.4,71.2c-0.6,3.5-1.8,4.8-5.4,4.6
				c-5.6-0.3-11.2-0.1-16.9-0.1c-0.6-4.3-1.1-7.9-1.7-12.5c-2.3,2.4-4,4.4-5.9,6.1c-9.8,8.5-21,10.8-33.2,6.7
				c-11-3.7-16.1-12.5-17.6-23.2c-0.8-5.2-0.7-10.7,0.1-15.9c3.9-23.6,8.2-47.1,12.4-70.6c0.7-4,1.8-8,3.3-11.8
				c5-13.1,14.2-21.5,28.4-23.4c12.9-1.7,25.8-2,38.1,3.3c9.1,3.9,14.5,11.1,15,20.8C1629.9,92.9,1628.8,100.8,1628.3,108.7z"/>
			<path id="XMLID_2904_" d="M1443.8,155c11.1,0,21.7,0,32.7,0c-0.9,5.2-1.8,10-2.5,14.9c-0.6,4.3,0,8.3,5,9.8
				c4.9,1.5,10.2-0.5,12-5.2c2.7-7.3,3.3-14.6-2.6-20.9c-6.6-6.9-13.2-13.9-19.9-20.7c-12.3-12.3-16.4-26.9-13.1-43.8
				c2.8-14.3,10.8-23.7,25.1-27.1c13.3-3.2,26.8-3.1,40,0.1c13.7,3.3,20.4,12.9,19.5,27c-1,16.5-1,16.5-17.3,16.5
				c-5.6,0-11.3,0-17.5,0c0.6-4,1.2-7.4,1.7-10.8c0.6-4.3,0.1-8.3-5.1-9.6c-5.6-1.4-10.5,1-12,6c-1.9,6.1-0.4,11.5,4,16.2
				c7.5,8,15,16.1,22.6,24c13.1,13.5,15.3,29.4,10.6,46.8c-4.3,16.3-15.1,26.2-31.6,28.1c-10.6,1.2-21.7,0.8-32.2-0.9
				c-16.7-2.8-24.6-14.7-22.6-31.6C1441.3,167.7,1442.6,161.6,1443.8,155z"/>
			<path id="XMLID_2903_" d="M1354.1,155c11.1,0,21.7,0,32.9,0c-0.8,4.9-1.7,9.5-2.4,14.2c-0.9,6.3,0.9,9.7,5.8,10.8
				c5.2,1.1,10-1.5,11.7-6.8c2.4-7.6,2-14.6-4.1-20.6c-7-7-13.8-14.2-20.7-21.4c-13.1-13.7-15.1-30-10-47.4
				c3.4-11.5,11.5-18.6,22.9-21.5c13.8-3.4,27.8-3.4,41.5,0.2c13.1,3.4,19.4,12.5,18.6,26c-0.3,5.6-1.5,11.2-2.3,17
				c-10.9,0-21.3,0-32.3,0c0.6-3.7,1.2-7.3,1.6-10.9c0.5-4.4-0.3-8.2-5.5-9.3c-5.6-1.2-10.4,1.4-11.8,6.4c-1.6,6-0.1,11.2,4,15.7
				c4.5,4.8,9,9.5,13.5,14.3c3.2,3.4,6.2,6.8,9.4,10.1c14.7,15.1,15.4,32.7,8.8,51.4c-4.1,11.7-12.7,19.2-24.6,22.2
				c-13.6,3.4-27.4,3.3-41-0.7c-13.5-4-20.2-13.5-19.3-27.4C1351.4,169.8,1353,162.5,1354.1,155z"/>
			<path id="XMLID_2902_" d="M1371.3,61.9c-6.7,20.3-13.1,39.6-19.5,58.9c-8.9,26.7-17.9,53.4-26.7,80.2c-1.1,3.4-2.6,4.7-6.3,4.6
				c-13.1-0.3-26.2-0.1-40.3-0.1c0-47.8,0-95.2,0-143.1c10.5,0,21.7,0,33.4,0c-1.2,31.4-2.4,62.6-3.6,93.8c0.3,0.1,0.7,0.1,1,0.2
				c3.7-12.3,7.4-24.6,11-36.9c5.3-17.6,10.6-35.3,15.7-53c0.9-3.2,2.1-4.7,5.7-4.6C1351.4,62.1,1360.9,61.9,1371.3,61.9z"/>
		</g>
	</g>
	<g id="XMLID_2841_">
		<g id="XMLID_2894_">
			<path id="XMLID_2900_" d="M2532.4,119.7l31.8-22.6c0.8-0.6,1.9-0.6,2.8,0l20.3,14.7c0.8,0.6,1.2,1.6,0.9,2.5l-15.4,54.7
				c-0.3,1,0.1,2,0.9,2.5l5.1,3.7c1.3,1,3.2,0.3,3.7-1.3l18.7-66.6c0.1-0.5,0.5-1,0.9-1.3l35.4-25.3c1.8-1.3,4.2,0.4,3.6,2.6
				l-21.4,76.7c-0.3,0.9,0.1,2,0.9,2.5l5.6,4c1.3,1,3.2,0.3,3.7-1.3l18.3-66.2c0.1-0.5,0.5-1,0.9-1.3l36.1-26.1
				c1.8-1.3,4.3,0.4,3.7,2.5l-22.9,81.4c-0.1,0.5-0.5,1-0.9,1.3l-58.5,42c-0.8,0.6-2,0.6-2.8,0l-14.1-10.4c-0.8-0.6-1.9-0.6-2.8,0
				l-27.3,19.5c-0.8,0.6-1.9,0.6-2.8,0l-22.4-16.2c-0.8-0.6-1.2-1.6-0.9-2.5l14.7-52.5c0.3-0.9-0.1-2-0.9-2.5l-15-10.8
				C2531.1,122.5,2531.1,120.6,2532.4,119.7z"/>
			<g id="XMLID_2896_">
				<path id="XMLID_2897_" d="M2762.1,48.9l-73.7,52.5c-0.4,0.3-0.8,0.8-0.9,1.3l-18.5,66.5c-0.3,0.9,0.1,2,0.9,2.5l25.6,18.5
					c0.8,0.6,1.9,0.6,2.7,0l71.8-51c0.4-0.3,0.8-0.8,0.9-1.3l19.3-68.6c0.3-0.9-0.1-2-0.9-2.5l-24.5-17.9
					C2764,48.3,2762.9,48.3,2762.1,48.9z M2724.4,153.5l-8.1-5.9c-0.8-0.6-1.2-1.6-0.9-2.5l15.7-55.8c0.4-1.6,2.3-2.2,3.7-1.3
					l8.1,5.9c0.8,0.6,1.2,1.6,0.9,2.5l-15.7,55.8C2727.6,153.9,2725.7,154.5,2724.4,153.5z"/>
			</g>
			<path id="XMLID_2895_" d="M2783.9,52l13.4,9.7c0.8,0.6,1.2,1.6,0.9,2.5l-15.4,54.7c-0.3,1,0.1,2,0.9,2.5l22.5,16.3
				c0.8,0.6,1.9,0.6,2.7,0l27.3-19.4c0.8-0.6,1.9-0.6,2.7,0l14,10.2c0.8,0.6,1.9,0.6,2.7,0l59.6-41.9c0.4-0.3,0.8-0.8,0.9-1.3
				L2939.5,3c0.6-2.1-1.8-3.8-3.6-2.6l-36.5,26c-0.4,0.3-0.8,0.8-0.9,1.3l-19,67.5c-0.4,1.6-2.3,2.2-3.7,1.3l-4.9-3.6
				c-0.8-0.6-1.2-1.6-0.9-2.5l22-78.1c0.6-2.1-1.8-3.8-3.6-2.6l-36.1,25.7c-0.4,0.3-0.8,0.8-0.9,1.3l-18.9,67.3
				c-0.4,1.6-2.3,2.2-3.7,1.3l-5.6-4.1c-0.8-0.6-1.2-1.6-0.9-2.5l15.8-56.2c0.3-1-0.1-2-0.9-2.5l-19.4-14c-0.8-0.6-1.9-0.6-2.8,0
				l-31.2,22.2C2782.6,49.1,2782.6,51,2783.9,52z"/>
		</g>
		<path id="XMLID_2893_" d="M2609.5,204.6c-0.3,0-0.5-0.1-0.7-0.3c-0.3-0.4-0.2-0.9,0.2-1.1l55-39.2c0.4-0.3,0.9-0.2,1.1,0.2
			c0.3,0.4,0.2,0.9-0.2,1.1l-55,39.2C2609.8,204.5,2609.6,204.6,2609.5,204.6z"/>
		<path id="XMLID_2892_" d="M2563.1,213.7c-0.3,0-0.5-0.1-0.7-0.3c-0.3-0.4-0.2-0.9,0.2-1.1l25.6-18.3c0.4-0.3,0.9-0.2,1.1,0.2
			c0.3,0.4,0.2,0.9-0.2,1.1l-25.6,18.3C2563.4,213.7,2563.2,213.7,2563.1,213.7z"/>
		<path id="XMLID_2891_" d="M2702.2,197.1c-0.3,0-0.5-0.1-0.7-0.3c-0.3-0.4-0.2-0.9,0.2-1.1l71.4-50.9c0.4-0.3,0.9-0.2,1.1,0.2
			c0.3,0.4,0.2,0.9-0.2,1.1l-71.4,50.9C2702.5,197.1,2702.4,197.1,2702.2,197.1z"/>
		<path id="XMLID_2890_" d="M2813.7,143.5c-0.3,0-0.5-0.1-0.7-0.3c-0.3-0.4-0.2-0.9,0.2-1.1l25.6-18.3c0.4-0.3,0.9-0.2,1.1,0.2
			c0.3,0.4,0.2,0.9-0.2,1.1l-25.6,18.3C2814,143.5,2813.8,143.5,2813.7,143.5z"/>
		<path id="XMLID_2889_" d="M2860.1,134.4c-0.3,0-0.5-0.1-0.7-0.3c-0.3-0.4-0.2-0.9,0.2-1.1l55-39.2c0.4-0.3,0.9-0.2,1.1,0.2
			c0.3,0.4,0.2,0.9-0.2,1.1l-55,39.2C2860.4,134.3,2860.2,134.4,2860.1,134.4z"/>
		<g id="XMLID_2854_">
			<path id="XMLID_2887_" d="M2751.8,180.6v3.6h8.9v1.8h-8.9v3.6h10.7v1.8H2750v-12.5h12.5v1.8H2751.8z"/>
			<path id="XMLID_2885_" d="M2777.3,182.3v8.9h-1.8v-8.9c0-1-0.8-1.8-1.8-1.8h-7.1v10.7h-1.8v-12.5h8.9
				C2775.7,178.8,2777.3,180.4,2777.3,182.3z"/>
			<path id="XMLID_2883_" d="M2792,180.6h-5.3v10.7h-1.8v-10.7h-5.3v-1.8h12.5V180.6z"/>
			<path id="XMLID_2881_" d="M2796.1,180.6v3.6h8.9v1.8h-8.9v3.6h10.7v1.8h-12.5v-12.5h12.5v1.8H2796.1z"/>
			<path id="XMLID_2878_" d="M2820.3,185c0.7,0.7,1.2,1.6,1.2,2.7v3.5h-1.8v-3.5c0-1-0.8-1.8-1.8-1.8v0h-7.1v5.3h-1.8v-12.5h8.9
				c2,0,3.6,1.6,3.6,3.6C2821.5,183.4,2821.1,184.4,2820.3,185z M2810.9,184.1h7.1c1,0,1.8-0.8,1.8-1.8s-0.8-1.8-1.8-1.8h-7.1V184.1
				z"/>
			<path id="XMLID_2876_" d="M2836.3,180.6h-5.3v10.7h-1.8v-10.7h-5.3v-1.8h12.5V180.6z"/>
			<path id="XMLID_2873_" d="M2851,182.3v8.9h-1.8v-5.3h-8.9v5.3h-1.8v-12.5h8.9C2849.5,178.8,2851,180.4,2851,182.3z M2849.3,182.3
				c0-1-0.8-1.8-1.8-1.8h-7.1v3.6h8.9V182.3z"/>
			<path id="XMLID_2871_" d="M2860.5,180.6v8.9h5.3v1.8h-12.5v-1.8h5.3v-8.9h-5.3v-1.8h12.5v1.8H2860.5z"/>
			<path id="XMLID_2869_" d="M2880.6,182.3v8.9h-1.8v-8.9c0-1-0.8-1.8-1.8-1.8h-7.1v10.7h-1.8v-12.5h8.9
				C2879,178.8,2880.6,180.4,2880.6,182.3z"/>
			<path id="XMLID_2867_" d="M2895.3,182.3v8.9h-1.8v-8.9c0-1-0.8-1.8-1.8-1.8h-1.8v10.7h-1.8v-10.7h-3.6v10.7h-1.8v-12.5h8.9
				C2893.7,178.8,2895.3,180.4,2895.3,182.3z"/>
			<path id="XMLID_2865_" d="M2899.4,180.6v3.6h8.9v1.8h-8.9v3.6h10.7v1.8h-12.5v-12.5h12.5v1.8H2899.4z"/>
			<path id="XMLID_2860_" d="M2924.8,182.3v8.9h-1.8v-8.9c0-1-0.8-1.8-1.8-1.8h-7.1v10.7h-1.8v-12.5h8.9
				C2923.2,178.8,2924.8,180.4,2924.8,182.3z"/>
			<path id="XMLID_2858_" d="M2939.6,180.6h-5.3v10.7h-1.8v-10.7h-5.3v-1.8h12.5V180.6z"/>
		</g>
		<g id="XMLID_2842_">
			<path id="XMLID_2846_" d="M2955.8,6.2c0,3.4-2.7,6.1-6.2,6.1c-3.5,0-6.3-2.7-6.3-6.1c0-3.4,2.8-6.1,6.3-6.1
				C2953.1,0.1,2955.8,2.8,2955.8,6.2z M2944.9,6.2c0,2.7,2,4.9,4.7,4.9c2.7,0,4.6-2.1,4.6-4.8c0-2.7-2-4.9-4.7-4.9
				C2946.9,1.3,2944.9,3.5,2944.9,6.2z M2948.6,9.3h-1.4V3.3c0.6-0.1,1.3-0.2,2.3-0.2c1.1,0,1.7,0.2,2.1,0.4
				c0.3,0.3,0.6,0.7,0.6,1.3c0,0.7-0.5,1.2-1.3,1.4v0.1c0.6,0.2,0.9,0.7,1.1,1.5c0.2,0.9,0.3,1.3,0.4,1.5h-1.5
				c-0.2-0.2-0.3-0.8-0.5-1.5c-0.1-0.7-0.5-1-1.3-1h-0.7V9.3z M2948.7,5.9h0.7c0.8,0,1.4-0.3,1.4-0.9c0-0.6-0.4-0.9-1.3-0.9
				c-0.4,0-0.6,0-0.8,0.1V5.9z"/>
		</g>
	</g>
	<g id="XMLID_2561_">
		<g id="XMLID_2755_">
			<path id="XMLID_2836_" d="M1839.3,211.2v-21.7h11.9v2h-9.7v7.8h9.4v2h-9.4v8h9.7v2H1839.3z"/>
			<path id="XMLID_2834_" d="M1893.7,211.2l-12.9-19.1h-0.1v19.1h-2.2v-21.7h2.9l12.1,18h0.1v-18h2.2v21.7H1893.7z"/>
			<path id="XMLID_2829_" d="M1928.9,191.5v19.7h-2.2v-19.7h-5v-2h12.1v2H1928.9z"/>
			<path id="XMLID_2827_" d="M1959.6,211.2v-21.7h11.9v2h-9.7v7.8h9.4v2h-9.4v8h9.7v2H1959.6z"/>
			<path id="XMLID_2822_" d="M2011.6,201.1c-1.2,1.2-2.7,1.9-4.6,2l6.1,8.1h-2.7l-7.4-9.8l2.3,0c1,0,1.8-0.1,2.3-0.3
				c2.4-0.7,3.6-2.3,3.6-4.6c0-1.9-0.8-3.3-2.4-4.2c-0.6-0.3-1.3-0.6-2-0.7c-0.6-0.1-1.3-0.1-2.2-0.1h-3.8v19.7h-2.2v-21.7h5.5
				c0.5,0,0.9,0,1.3,0c0.5,0,1,0.1,1.4,0.1c1.1,0.1,1.9,0.4,2.6,0.7c2.6,1.2,3.9,3.3,3.9,6.2
				C2013.5,198.4,2012.9,199.9,2011.6,201.1z"/>
			<path id="XMLID_2771_" d="M2044.8,191.5v19.7h-2.2v-19.7h-5v-2h12.1v2H2044.8z"/>
			<path id="XMLID_2768_" d="M2089.7,211.2l-3.1-7.3h-10.1l-3.2,7.3h-2.3l9.3-21.7h2.4l9.3,21.7H2089.7z M2081.6,192l-4.3,10h8.4
				L2081.6,192z"/>
			<path id="XMLID_2766_" d="M2118.1,211.2v-21.7h2.2v21.7H2118.1z"/>
			<path id="XMLID_2764_" d="M2163.3,211.2l-12.9-19.1h-0.1v19.1h-2.2v-21.7h2.9l12.1,18h0.1v-18h2.2v21.7H2163.3z"/>
			<path id="XMLID_2762_" d="M2213.7,211.2v-19.3h-0.1l-8.1,19.3h-1.8l-8.1-19.3h-0.1v19.3h-2.2v-21.7h3.3l7.9,18.5l7.9-18.5h3.4
				v21.7H2213.7z"/>
			<path id="XMLID_2760_" d="M2243.6,211.2v-21.7h11.9v2h-9.7v7.8h9.4v2h-9.4v8h9.7v2H2243.6z"/>
			<path id="XMLID_2758_" d="M2298,211.2l-12.9-19.1h-0.1v19.1h-2.2v-21.7h2.9l12.1,18h0.1v-18h2.2v21.7H2298z"/>
			<path id="XMLID_2756_" d="M2333.2,191.5v19.7h-2.2v-19.7h-5v-2h12.1v2H2333.2z"/>
		</g>
		<g id="XMLID_2745_">
			<path id="XMLID_2753_" d="M1904.6,64.9h49.4l-38.2,99h-49.7l18.1-46.7l-34.1,23.4l-12.3-32.6l-21.8,55.9h-49.4l30.9-79.4
				c-4.8-2.7-9-5.7-12.5-8.8c-3.5-3.1-6-6.7-7.6-10.8h27.8h49.3l10.3,32.6L1904.6,64.9z"/>
			<path id="XMLID_2751_" d="M2052.4,64.9l30.2,99h-47l-17.4-57.3l-14.2,17.7c-1.9,2.3-3.8,4.6-5.6,6.9c-1.8,2.3-3.6,4.5-5.2,6.4
				c-1.6,2-3,3.7-4.2,5.2c-1.2,1.5-2.1,2.6-2.7,3.3c-3.3,3.9-6.9,7-10.8,9.3c-3.9,2.4-7.8,4.2-11.8,5.5c-4,1.3-8,2.1-12.1,2.5
				c-4.1,0.4-7.9,0.6-11.6,0.6h-21.5l68.1-79.3c-4.3-2.4-7.8-4.7-10.4-7c-2.6-2.3-4.6-4.4-6-6.3c-1.7-2.2-2.9-4.3-3.5-6.4H2052.4z"
				/>
			<path id="XMLID_2749_" d="M2221.9,64.9h49.4l-38.2,99h-49.7l18.1-46.7l-34.1,23.4l-12.3-32.6l-21.8,55.9h-49.4l30.9-79.4
				c-4.8-2.7-9-5.7-12.5-8.8c-3.5-3.1-6-6.7-7.6-10.8h27.8h49.3l10.3,32.6L2221.9,64.9z"/>
			<path id="XMLID_2746_" d="M2369.7,64.9l30.2,99h-47l-17.4-57.3l-14.2,17.7c-1.9,2.3-3.8,4.6-5.6,6.9c-1.8,2.3-3.6,4.5-5.2,6.4
				c-1.6,2-3,3.7-4.2,5.2c-1.2,1.5-2.1,2.6-2.7,3.3c-3.3,3.9-6.9,7-10.8,9.3c-3.9,2.4-7.8,4.2-11.8,5.5c-4,1.3-8,2.1-12.1,2.5
				c-4.1,0.4-7.9,0.6-11.6,0.6h-21.5l68.1-79.3c-4.3-2.4-7.8-4.7-10.4-7c-2.6-2.3-4.6-4.4-6-6.3c-1.7-2.2-2.9-4.3-3.5-6.4H2369.7z"
				/>
		</g>
	</g>
</g>
</svg>
