<svg id="Layer_1" data-name="Layer 1" xmlns="http://www.w3.org/2000/svg" viewBox="0 0 477 500"><title>logo-saigoii</title><path d="M433.35,217.85c-6.9,0-18.79,23.08-29,46.25.45-1.65.84-3.23,1.15-4.71,2.48-11.84,2.94-41.57-30.9-41.54-26.93,0-43.63,24.15-49.29,34,.64-13.73-3.91-34-31.84-34-28.21,0-45.19,26.5-50,35.24,5.45-18.94,8.46-35.24,2.66-35.24-9.44,0-28.26,43.33-39.25,70.83a2.42,2.42,0,0,1-.55.13c9.8-27.49,23.81-71,14.35-71-4.17,0-10.15,8.43-16.49,20.2-3-10.52-11.09-20.22-30.42-20.2-25.08,0-41.29,21-48,31.75-5.92-21-35.86-34.6-35.86-34.6s16.95,1.93,28,11.83c0,0,19.52-.84,24.94-25.19C147.7,180.1,125.28,155,92.76,155c-23.25,0-52.7,11-63,43.37-6.57,20.6,4.52,47.17,33.92,50.37,0,0-20.72,6.33-35.56-15.27,0,0-24.93,7-28.48,36.12-4.41,36,29.88,42.5,57.09,42.34,25.23-.16,48.14-10.15,60.63-28.1,1.78,16,12.72,28.79,36.18,28.13a43.82,43.82,0,0,0,21.22-6c-1.16,3.08-1.82,4.88-1.82,4.88h25.26l.33-.86h.18l-.31.86H223.6s6.86-17.54,13.49-37.38c-2.32,20.44,7.75,39.32,36.13,38.52A45,45,0,0,0,284,310.35c-31.33,42.37-95.43,83-83.14,53,33.31-81.29-129-57.32-129.71,35.3-.37,47.75,73.1,56.49,146.44,7.92,65.51-43.38,95.46-106.31,101.11-119.26,2.92,14.33,13.91,25.26,35.65,24.65,19.83-.56,33-13.09,41.23-27-5.92,14.63-10,25.83-10,25.83h25.25S447.18,217.85,433.35,217.85ZM195.76,255.24l.4-.28.2-.12.37-.21.2-.09a1.82,1.82,0,0,1,.37-.13l.16-.06a3,3,0,0,1,.5-.07.68.68,0,0,1,.31.06s0,0,.06,0a.4.4,0,0,1,.12.1l0,.1a.66.66,0,0,1,0,.15.89.89,0,0,1,0,.15,1.48,1.48,0,0,1,0,.19,1.46,1.46,0,0,1-.07.19,1.44,1.44,0,0,1-.09.24c0,.07-.07.14-.1.22l-.14.28-.15.25-.19.31c-.06.09-.12.19-.19.28s-.15.23-.23.35l-.21.31-.28.38-.24.32-.31.41L196,259l-.35.43-.28.35-.38.46-.29.35-.42.49-.29.34q-.21.25-.45.51c-.09.12-.19.23-.29.34l-.46.53c-.1.11-.21.22-.31.34l-.48.54c-4,4.4-8.28,8.69-8.28,8.69S190.76,259,195.76,255.24Zm115.6-1c3.9,0-14.25,18-14.25,18S306.6,254.33,311.36,254.28Zm65.69,18s9.49-18,14.25-18C395.2,254.25,377.05,272.33,377.05,272.33Z"/><path d="M458.9,217.85c-13.84,0-47.78,93-47.78,93h25.25S472.74,217.85,458.9,217.85Z"/><ellipse cx="254.06" cy="170.09" rx="16.53" ry="9.49" transform="translate(-20.27 305.07) rotate(-60)"/><path d="M473.41,155.77c-4.54-2.62-10.43,1.63-15,9.54-.54.92-2,2.61-2.91,2.83-5.13,1.19,3.53-9.2-2.73-12.37-4.68-2.36-11.92,1.67-16.48,9.57s-4.59,16.44-.05,19.06,9.74-.21,14.3-8.11c.54-.93,2.43-3.92,3.6-4.25,5.53-1.52-4.21,9.86,3.16,12.36,5,1.69,11.49-1.66,16.05-9.56S478,158.4,473.41,155.77Z"/></svg>