<svg id="Layer_1" data-name="Layer 1" xmlns="http://www.w3.org/2000/svg" viewBox="0 0 304 500"><title>logo-vssg</title><g id="z96qjm.tif"><path d="M302.59,228.39H274.28c.44-3.6,1-6.9,1.22-10.21.27-3.48-.66-6.48-4.52-7.5-4-1.06-7.57,0-9.31,3.81a42.55,42.55,0,0,0-2.79,10.11c-3.14,17.63-6.15,35.29-9.19,52.94a31.86,31.86,0,0,0-.42,3.65c-.2,3.95.64,7.41,5,8.76A8.46,8.46,0,0,0,264.86,285c1.5-3.8,2.19-7.94,3-12,.81-3.87,1.34-7.79,2.09-12.27H259.76c1.34-7.61,2.57-14.64,3.83-21.82h37.64c-.4,2.68-.73,5.16-1.16,7.63-3.59,20.51-7.27,41-10.74,61.53-.5,3-1.52,4.17-4.64,4-4.85-.26-9.73-.07-14.6-.07l-1.49-10.78c-2,2.06-3.42,3.79-5.09,5.24-8.46,7.33-18.15,9.33-28.71,5.81-9.48-3.17-13.88-10.77-15.25-20.09a45,45,0,0,1,.12-13.71c3.37-20.39,7.06-40.73,10.75-61.06a57.56,57.56,0,0,1,2.83-10.16c4.33-11.34,12.28-18.62,24.53-20.22,11.15-1.46,22.33-1.76,33,2.86,7.86,3.41,12.54,9.56,12.94,18C304,214.71,303,221.53,302.59,228.39Z"/><path d="M143.1,268.41h28.25c-.74,4.48-1.54,8.67-2.12,12.89-.52,3.75,0,7.13,4.33,8.48s8.8-.41,10.35-4.52c2.38-6.29,2.85-12.62-2.28-18-5.68-6-11.38-12-17.22-17.86-10.61-10.63-14.14-23.27-11.3-37.89,2.4-12.32,9.37-20.48,21.7-23.43a73.46,73.46,0,0,1,34.6.11c11.83,2.86,17.6,11.16,16.85,23.35-.88,14.27-.88,14.27-14.94,14.27H196.16c.54-3.43,1.08-6.38,1.45-9.35.48-3.75.13-7.16-4.41-8.27-4.8-1.16-9.06.86-10.39,5.17-1.64,5.29-.31,10,3.45,14,6.51,6.92,12.93,13.91,19.56,20.71,11.36,11.65,13.2,25.39,9.19,40.46-3.75,14.09-13.09,22.65-27.35,24.27a102.1,102.1,0,0,1-27.82-.79c-14.47-2.42-21.3-12.73-19.52-27.31C141,279.33,142.12,274.09,143.1,268.41Z"/><path d="M65.55,268.41H94c-.71,4.25-1.44,8.24-2,12.26-.81,5.43.82,8.39,5,9.31a8.38,8.38,0,0,0,10.1-5.86c2.11-6.53,1.7-12.61-3.51-17.84-6-6.07-12-12.29-17.88-18.5-11.29-11.88-13.06-25.9-8.63-41,2.9-9.92,9.9-16.1,19.83-18.57a71.84,71.84,0,0,1,35.91.16c11.31,2.95,16.77,10.78,16.06,22.46-.29,4.86-1.26,9.68-1.95,14.7h-28c.48-3.23,1-6.31,1.38-9.4.44-3.84-.24-7.1-4.77-8.06-4.8-1-9,1.2-10.18,5.56a13.74,13.74,0,0,0,3.49,13.59c3.85,4.16,7.79,8.23,11.67,12.36,2.73,2.9,5.37,5.87,8.14,8.73,12.67,13.07,13.28,28.3,7.6,44.39-3.56,10.08-11,16.61-21.3,19.17a67.16,67.16,0,0,1-35.42-.56c-11.65-3.42-17.44-11.65-16.65-23.73C63.26,281.2,64.6,274.89,65.55,268.41Z"/><path d="M80.44,188c-5.8,17.52-11.31,34.22-16.87,50.9C55.88,262,48.1,285,40.52,308.14c-1,3-2.28,4-5.48,4C23.73,311.9,12.41,312,.23,312V188.36h28.9c-1,27.14-2.06,54.1-3.08,81.06l.84.14,9.54-31.93C41,222.37,45.61,207.14,50,191.85c.8-2.77,1.85-4,4.94-4C63.22,188.1,71.48,188,80.44,188Z"/></g></svg>