<svg xmlns="http://www.w3.org/2000/svg" viewBox="0 0 363.73 112.51"><defs><style>.cls-1{fill:#fff;}</style></defs><title>sg-event-content</title><g id="Layer_2" data-name="Layer 2"><g id="Layer_1-2" data-name="Layer 1"><path class="cls-1" d="M22.86,15.45A1.17,1.17,0,0,1,22.4,15a1.26,1.26,0,0,1-.17-.65,1.29,1.29,0,0,1,.17-.65,1.09,1.09,0,0,1,.46-.44,1.34,1.34,0,0,1,.66-.16,1.29,1.29,0,0,1,.66.16,1.09,1.09,0,0,1,.46.44,1.29,1.29,0,0,1,.17.65,1.26,1.26,0,0,1-.17.65,1.17,1.17,0,0,1-.46.45,1.4,1.4,0,0,1-.66.15A1.45,1.45,0,0,1,22.86,15.45Z"/><path class="cls-1" d="M31.53,12.27h8.73V13H31.53ZM34,7.07h6a9,9,0,0,1,4,.81,6,6,0,0,1,3.59,5.68A6.06,6.06,0,0,1,44,19.25a9.15,9.15,0,0,1-4,.8H34Zm6,11.42a7.17,7.17,0,0,0,3-.6,4.6,4.6,0,0,0,2-1.71,4.7,4.7,0,0,0,.72-2.62,4.7,4.7,0,0,0-.72-2.62,4.6,4.6,0,0,0-2-1.71,7.17,7.17,0,0,0-3-.6H35.81v9.86Z"/><path class="cls-1" d="M52.79,19.63A6.82,6.82,0,0,1,50,17.17a6.53,6.53,0,0,1-1-3.61A6.48,6.48,0,0,1,50,10,6.84,6.84,0,0,1,52.79,7.5,10,10,0,0,1,61,7.5,6.8,6.8,0,0,1,63.85,10a6.48,6.48,0,0,1,1,3.59,6.53,6.53,0,0,1-1,3.61A6.78,6.78,0,0,1,61,19.63a10.08,10.08,0,0,1-8.24,0Zm7.29-1.37a5.39,5.39,0,0,0,2.19-1.92,5,5,0,0,0,.79-2.78,5,5,0,0,0-.79-2.78,5.39,5.39,0,0,0-2.19-1.92,7.65,7.65,0,0,0-6.35,0,5.3,5.3,0,0,0-2.18,1.92,5.09,5.09,0,0,0-.78,2.78,5.09,5.09,0,0,0,.78,2.78,5.3,5.3,0,0,0,2.18,1.92,7.65,7.65,0,0,0,6.35,0Z"/><path class="cls-1" d="M70.06,19.62a6.92,6.92,0,0,1-2.81-2.48,6.58,6.58,0,0,1-1-3.58,6.86,6.86,0,0,1,1-3.57,6.65,6.65,0,0,1,2.64-2.48,8,8,0,0,1,3.81-.9,7.68,7.68,0,0,1,2.83.52A7,7,0,0,1,78.8,8.6a5.71,5.71,0,0,1,1.43,2.15l-1.66.53a4.15,4.15,0,0,0-1-1.61,5.25,5.25,0,0,0-1.73-1.11,6.3,6.3,0,0,0-5,.3,5.06,5.06,0,0,0-2,1.92,5.5,5.5,0,0,0-.71,2.78,5.09,5.09,0,0,0,.78,2.78A5.27,5.27,0,0,0,71,18.26a6.88,6.88,0,0,0,3.12.69,6.17,6.17,0,0,0,2.52-.51,5.62,5.62,0,0,0,2-1.38,4.47,4.47,0,0,0,1.06-2l1.69.48A5.74,5.74,0,0,1,80,18.11a7,7,0,0,1-2.57,1.77,8.5,8.5,0,0,1-3.27.63A8.94,8.94,0,0,1,70.06,19.62Z"/><path class="cls-1" d="M93.21,8.63H88V7.07h12.2V8.63H95V20.05H93.21Z"/><path class="cls-1" d="M111.82,20.23a2.12,2.12,0,0,1-.69-.53,2.93,2.93,0,0,1-.46-.79l-1-2.72a2.42,2.42,0,0,0-.78-1.05,1.75,1.75,0,0,0-1.09-.4h-4.64v5.31h-1.8v-13H109a6,6,0,0,1,2.45.48,4.13,4.13,0,0,1,1.7,1.36,3.25,3.25,0,0,1,.61,1.95,3.19,3.19,0,0,1-.45,1.64,3.59,3.59,0,0,1-1.25,1.26,4.54,4.54,0,0,1-1.81.63,3.3,3.3,0,0,1,.71.69,3.19,3.19,0,0,1,.5.93l.81,2.22a1.44,1.44,0,0,0,.32.52.62.62,0,0,0,.46.18,1,1,0,0,0,.62-.24,2,2,0,0,0,.54-.64l.86,1a3.41,3.41,0,0,1-1,1,2.46,2.46,0,0,1-1.31.36A2.09,2.09,0,0,1,111.82,20.23ZM109,13.16a4.13,4.13,0,0,0,1.56-.29,2.51,2.51,0,0,0,1.09-.79,1.79,1.79,0,0,0,.4-1.15,1.92,1.92,0,0,0-.4-1.22,2.55,2.55,0,0,0-1.08-.8A4.11,4.11,0,0,0,109,8.63h-5.8v4.53Z"/><path class="cls-1" d="M116.1,7.07h10.77V8.63h-9v4h8.28v1.53h-8.28v4.36h9.2v1.56h-11Zm2.1-2,3-2h1l3,2-.43.6-3.11-2-3.09,2Z"/><path class="cls-1" d="M128.48,7.07h2.34L139,18V7.07h1.8v13h-2.34l-8.2-10.89V20.05h-1.81Z"/><path class="cls-1" d="M148.92,7.07h2.34L159.47,18V7.07h1.8v13h-2.34l-8.2-10.89V20.05h-1.81Z"/><path class="cls-1" d="M163.29,7.07h10.77V8.63h-9v4h8.28v1.53H165v4.36h9.2v1.56h-11Zm2.1-2,3-2h1l3,2-.43.6-3.11-2-3.09,2Z"/><path class="cls-1" d="M175.67,7.07H178L186.22,18V7.07H188v13h-2.34l-8.2-10.89V20.05h-1.81Z"/><path class="cls-1" d="M196.12,7.07h2.33L206.66,18V7.07h1.8v13h-2.34l-8.2-10.89V20.05h-1.8Z"/><path class="cls-1" d="M210.48,7.07h1.81v5.4H221V7.07h1.8v13H221V14h-8.7v6h-1.81Z"/><path class="cls-1" d="M229.89,7.07H232l5.9,13H236l-1.4-3h-7.36l-1.39,3h-1.94ZM234,15.46l-3-6.72-3.05,6.72Z"/><path class="cls-1" d="M241.66,19.62a6.85,6.85,0,0,1-2.81-2.48,6.58,6.58,0,0,1-1-3.58,6.86,6.86,0,0,1,.95-3.57,6.65,6.65,0,0,1,2.64-2.48,8,8,0,0,1,3.81-.9,7.68,7.68,0,0,1,2.83.52A7,7,0,0,1,250.4,8.6a5.71,5.71,0,0,1,1.43,2.15l-1.66.53a4.15,4.15,0,0,0-1-1.61,5.25,5.25,0,0,0-1.73-1.11,6.3,6.3,0,0,0-5,.3,5.06,5.06,0,0,0-2,1.92,5.4,5.4,0,0,0-.71,2.78,5.09,5.09,0,0,0,.78,2.78,5.27,5.27,0,0,0,2.17,1.92,6.88,6.88,0,0,0,3.12.69,6.24,6.24,0,0,0,2.52-.51,5.62,5.62,0,0,0,2-1.38,4.35,4.35,0,0,0,1.05-2l1.7.48a5.84,5.84,0,0,1-1.39,2.54A7,7,0,0,1,249,19.88a8.5,8.5,0,0,1-3.27.63A8.94,8.94,0,0,1,241.66,19.62Z"/><path class="cls-1" d="M260.49,7.07h1.8v5.4H271V7.07h1.8v13H271V14h-8.71v6h-1.8Z"/><path class="cls-1" d="M274.82,7.07h1.81v13h-1.81Z"/><path class="cls-1" d="M278.65,7.07h7.29a5.5,5.5,0,0,1,2.47.53,4.25,4.25,0,0,1,1.71,1.47,3.93,3.93,0,0,1,0,4.24,4.1,4.1,0,0,1-1.71,1.47,5.63,5.63,0,0,1-2.47.53h-5.52v4.74h-1.77Zm7.16,6.66a3.64,3.64,0,0,0,1.6-.34,2.77,2.77,0,0,0,1.13-.91,2.18,2.18,0,0,0,.41-1.29,2.21,2.21,0,0,0-.4-1.31A2.9,2.9,0,0,0,287.43,9a3.7,3.7,0,0,0-1.62-.34h-5.39v5.1Z"/><path class="cls-1" d="M298.15,7.07H300v5.4h8.7V7.07h1.8v13h-1.8V14H300v6h-1.81Z"/><path class="cls-1" d="M316,19.63a6.91,6.91,0,0,1-2.82-2.46,6.61,6.61,0,0,1-1-3.61,6.57,6.57,0,0,1,1-3.59A6.93,6.93,0,0,1,316,7.5a10,10,0,0,1,8.23,0A6.89,6.89,0,0,1,327.06,10a6.57,6.57,0,0,1,1,3.59,6.61,6.61,0,0,1-1,3.61,6.87,6.87,0,0,1-2.83,2.46,10.06,10.06,0,0,1-8.23,0Zm7.28-1.37a5.26,5.26,0,0,0,2.19-1.92,5,5,0,0,0,.79-2.78,5,5,0,0,0-.79-2.78,5.26,5.26,0,0,0-2.19-1.92,7.63,7.63,0,0,0-6.34,0,5.24,5.24,0,0,0-2.18,1.92,5.29,5.29,0,0,0,0,5.56,5.24,5.24,0,0,0,2.18,1.92,7.63,7.63,0,0,0,6.34,0Z"/><path class="cls-1" d="M329.76,7.07h7.29a5.5,5.5,0,0,1,2.47.53,4.25,4.25,0,0,1,1.71,1.47,3.93,3.93,0,0,1,0,4.24,4.1,4.1,0,0,1-1.71,1.47,5.63,5.63,0,0,1-2.47.53h-5.52v4.74h-1.77Zm7.16,6.66a3.64,3.64,0,0,0,1.6-.34,2.77,2.77,0,0,0,1.13-.91,2.18,2.18,0,0,0,.41-1.29,2.21,2.21,0,0,0-.4-1.31A2.9,2.9,0,0,0,338.54,9a3.7,3.7,0,0,0-1.62-.34h-5.39v5.1Z"/><path class="cls-1" d="M.63,38.44A1.09,1.09,0,0,1,.17,38,1.29,1.29,0,0,1,0,37.35a1.26,1.26,0,0,1,.17-.65,1.17,1.17,0,0,1,.46-.45,1.4,1.4,0,0,1,.66-.15,1.45,1.45,0,0,1,.66.15,1.17,1.17,0,0,1,.46.45,1.26,1.26,0,0,1,.17.65,1.29,1.29,0,0,1-.17.65,1.09,1.09,0,0,1-.46.44,1.34,1.34,0,0,1-.66.16A1.29,1.29,0,0,1,.63,38.44Z"/><path class="cls-1" d="M14.63,31.63H9.42V30.06h12.2v1.57H16.43V43.05h-1.8Z"/><path class="cls-1" d="M33.23,43.23a2,2,0,0,1-.69-.54,2.49,2.49,0,0,1-.45-.78l-1-2.72a2.52,2.52,0,0,0-.79-1,1.75,1.75,0,0,0-1.09-.4H24.56v5.31h-1.8v-13h7.67a6,6,0,0,1,2.45.49,4.19,4.19,0,0,1,1.7,1.35,3.3,3.3,0,0,1,.62,2,3.2,3.2,0,0,1-.45,1.65,3.62,3.62,0,0,1-1.26,1.26,4.49,4.49,0,0,1-1.81.63,3.08,3.08,0,0,1,.71.69,3.29,3.29,0,0,1,.51.92l.81,2.23a1.53,1.53,0,0,0,.31.52.62.62,0,0,0,.46.18,1,1,0,0,0,.62-.24,2,2,0,0,0,.54-.64l.86,1a3.41,3.41,0,0,1-1,1,2.45,2.45,0,0,1-1.3.36A2.13,2.13,0,0,1,33.23,43.23Zm-2.87-7.08a4.09,4.09,0,0,0,1.56-.28,2.69,2.69,0,0,0,1.1-.79,1.84,1.84,0,0,0,.39-1.15A2,2,0,0,0,33,32.71a2.65,2.65,0,0,0-1.09-.8,4.07,4.07,0,0,0-1.57-.28h-5.8v4.52Z"/><path class="cls-1" d="M40,42.78a5.51,5.51,0,0,1-2.24-2.09A6,6,0,0,1,37,37.53V30.06h1.81v7.47a4.5,4.5,0,0,0,.58,2.31,4,4,0,0,0,1.59,1.56,4.86,4.86,0,0,0,2.33.55,5,5,0,0,0,2.32-.53,3.84,3.84,0,0,0,1.58-1.54,4.67,4.67,0,0,0,.57-2.35V30.06h1.79v7.47a6.11,6.11,0,0,1-.8,3.16,5.42,5.42,0,0,1-2.23,2.09,7.58,7.58,0,0,1-6.49,0Z"/><path class="cls-1" d="M51.37,30.06h2.34L61.91,41V30.06h1.8v13H61.38L53.17,32.16V43.05h-1.8Z"/><path class="cls-1" d="M69.19,42.62a6.75,6.75,0,0,1,0-12.12,8.56,8.56,0,0,1,4-.9,8.16,8.16,0,0,1,2.77.49,7.09,7.09,0,0,1,2.31,1.34,4.51,4.51,0,0,1,1.34,2l-1.66.53a3.1,3.1,0,0,0-1-1.41,5.65,5.65,0,0,0-1.72-1,6,6,0,0,0-2.06-.36,6.53,6.53,0,0,0-3.05.69,5.11,5.11,0,0,0-2.84,4.7,5,5,0,0,0,.8,2.78,5.35,5.35,0,0,0,2.2,1.92,7,7,0,0,0,3.16.69,6.94,6.94,0,0,0,2.94-.62,5.52,5.52,0,0,0,2.14-1.65,3.7,3.7,0,0,0,.79-2.29h-9V35.84H81v7.21H79.55l-.23-2.41a6.93,6.93,0,0,1-2.58,2.11,8.1,8.1,0,0,1-3.57.76A8.79,8.79,0,0,1,69.19,42.62Z"/><path class="cls-1" d="M88.81,30.06h7.8a4.91,4.91,0,0,1,2.14.46,3.62,3.62,0,0,1,1.48,1.27,3.26,3.26,0,0,1,.54,1.84,2.94,2.94,0,0,1-.55,1.73,2.54,2.54,0,0,1-1.4,1,2.88,2.88,0,0,1,1.66,1.1,3.06,3.06,0,0,1,.66,1.92,3.3,3.3,0,0,1-.58,1.89A3.86,3.86,0,0,1,99,42.58a5.44,5.44,0,0,1-2.32.47H88.81Zm7.58,5.52a3.34,3.34,0,0,0,1.34-.25,2.1,2.1,0,0,0,.92-.69,1.71,1.71,0,0,0,.33-1,1.69,1.69,0,0,0-.33-1,2.14,2.14,0,0,0-.92-.71,3.34,3.34,0,0,0-1.34-.26H90.61v4Zm0,5.93a4,4,0,0,0,1.53-.29A2.47,2.47,0,0,0,99,40.43a1.84,1.84,0,0,0,.39-1.15A1.69,1.69,0,0,0,99,38.19a2.53,2.53,0,0,0-1.06-.78,4,4,0,0,0-1.53-.28H90.61v4.38Z"/><path class="cls-1" d="M107.32,30.06h2.13l5.91,13h-1.92l-1.39-3h-7.36l-1.4,3h-1.93Zm4.08,8.39-3-6.71-3,6.71Zm-5.43-12,.5-.55,2.5,2.23-.47.53Z"/><path class="cls-1" d="M119.57,38.38l-5.67-8.32h2.17l4.4,6.65,4.36-6.65H127l-5.62,8.32v4.67h-1.8Z"/><path class="cls-1" d="M125.73,45a1.19,1.19,0,0,0,.91-.08,1.47,1.47,0,0,0,.68-.69,2.15,2.15,0,0,0,.22-1.06,1.23,1.23,0,0,1-.81.09,1.11,1.11,0,0,1-.62-.4,1,1,0,0,1-.21-.68A1.08,1.08,0,0,1,127,41a1.08,1.08,0,0,1,.66.21,1.28,1.28,0,0,1,.45.64,3.08,3.08,0,0,1,.16,1.08,3.53,3.53,0,0,1-.36,1.65,2.07,2.07,0,0,1-1,1,2.15,2.15,0,0,1-1.43.09Z"/><path class="cls-1" d="M136,30.06h7.8a4.91,4.91,0,0,1,2.14.46,3.62,3.62,0,0,1,1.48,1.27,3.26,3.26,0,0,1,.54,1.84,2.94,2.94,0,0,1-.55,1.73,2.54,2.54,0,0,1-1.4,1,2.88,2.88,0,0,1,1.66,1.1,3.06,3.06,0,0,1,.66,1.92,3.3,3.3,0,0,1-.58,1.89,3.86,3.86,0,0,1-1.61,1.3,5.44,5.44,0,0,1-2.32.47H136Zm7.58,5.52a3.34,3.34,0,0,0,1.34-.25,2.1,2.1,0,0,0,.92-.69,1.71,1.71,0,0,0,.33-1,1.69,1.69,0,0,0-.33-1,2.14,2.14,0,0,0-.92-.71,3.34,3.34,0,0,0-1.34-.26h-5.78v4Zm0,5.93a4,4,0,0,0,1.53-.29,2.47,2.47,0,0,0,1.06-.79,1.84,1.84,0,0,0,.39-1.15,1.69,1.69,0,0,0-.39-1.09,2.53,2.53,0,0,0-1.06-.78,4,4,0,0,0-1.53-.28h-5.76v4.38Z"/><path class="cls-1" d="M149.82,30.06h1.8v13h-1.8Z"/><path class="cls-1" d="M153.64,30.06h10.77v1.57h-9v4h8.28v1.53h-8.28v4.36h9.2v1.56h-11Zm2.1-2,3-2h1l3,2-.43.61-3.11-2-3.09,2Z"/><path class="cls-1" d="M168.89,42.78a5.51,5.51,0,0,1-2.24-2.09,6,6,0,0,1-.81-3.16V30.06h1.81v7.47a4.5,4.5,0,0,0,.58,2.31,4,4,0,0,0,1.59,1.56,4.86,4.86,0,0,0,2.33.55,5,5,0,0,0,2.32-.53,3.84,3.84,0,0,0,1.58-1.54,4.67,4.67,0,0,0,.57-2.35V30.06h1.79v7.47a6.11,6.11,0,0,1-.8,3.16,5.42,5.42,0,0,1-2.23,2.09,7.58,7.58,0,0,1-6.49,0Z"/><path class="cls-1" d="M186.32,30.06h6a9.15,9.15,0,0,1,4,.81,6.25,6.25,0,0,1,0,11.37,9.15,9.15,0,0,1-4,.81h-6Zm6,11.43a7.14,7.14,0,0,0,3-.6,4.69,4.69,0,0,0,2-1.71,5.19,5.19,0,0,0,0-5.24,4.56,4.56,0,0,0-2-1.71,7.14,7.14,0,0,0-3-.6h-4.23v9.86Z"/><path class="cls-1" d="M201.61,30.06h1.8v13h-1.8Z"/><path class="cls-1" d="M205.43,30.06H216.2v1.57h-9v4h8.28v1.53h-8.28v4.36h9.2v1.56H205.43Zm2.1-2,3-2h1l3,2-.42.61-3.11-2-3.09,2Z"/><path class="cls-1" d="M217.82,30.06h2.33L228.36,41V30.06h1.8v13h-2.33l-8.21-10.89V43.05h-1.8Z"/><path class="cls-1" d="M242.58,31.63h-5.21V30.06h12.2v1.57h-5.19V43.05h-1.8Z"/><path class="cls-1" d="M250.71,30.06h1.81v5.41h8.7V30.06H263v13h-1.8V37h-8.7v6h-1.81Z"/><path class="cls-1" d="M268.56,42.63a6.86,6.86,0,0,1-2.82-2.47,6.9,6.9,0,0,1,0-7.19,6.93,6.93,0,0,1,2.82-2.47,9.86,9.86,0,0,1,8.23,0A6.89,6.89,0,0,1,279.62,33a6.9,6.9,0,0,1,0,7.19,6.82,6.82,0,0,1-2.83,2.47,10.06,10.06,0,0,1-8.23,0Zm7.28-1.37A5.26,5.26,0,0,0,278,39.34a5.23,5.23,0,0,0,0-5.56,5.26,5.26,0,0,0-2.19-1.92,7.63,7.63,0,0,0-6.34,0,5.3,5.3,0,0,0-2.18,1.92,5.34,5.34,0,0,0,0,5.56,5.3,5.3,0,0,0,2.18,1.92,7.63,7.63,0,0,0,6.34,0Zm-5.55-14.77.5-.55,2.5,2.23-.48.53Z"/><path class="cls-1" d="M282.32,30.06h1.8v13h-1.8Z"/><path class="cls-1" d="M296.54,31.63h-5.2V30.06h12.19v1.57h-5.18V43.05h-1.81Z"/><path class="cls-1" d="M315.14,43.23a2,2,0,0,1-.69-.54,2.49,2.49,0,0,1-.45-.78l-1-2.72a2.42,2.42,0,0,0-.78-1,1.78,1.78,0,0,0-1.1-.4h-4.63v5.31h-1.81v-13h7.68a6,6,0,0,1,2.44.49,4.23,4.23,0,0,1,1.71,1.35,3.29,3.29,0,0,1,.61,2,3.2,3.2,0,0,1-.45,1.65,3.67,3.67,0,0,1-1.25,1.26,4.54,4.54,0,0,1-1.81.63,3.54,3.54,0,0,1,.71.69,3.27,3.27,0,0,1,.5.92l.81,2.23a1.7,1.7,0,0,0,.31.52.65.65,0,0,0,.46.18,1,1,0,0,0,.63-.24,1.88,1.88,0,0,0,.53-.64l.87,1a3.53,3.53,0,0,1-1,1,2.46,2.46,0,0,1-1.31.36A2.16,2.16,0,0,1,315.14,43.23Zm-2.87-7.08a4.14,4.14,0,0,0,1.57-.28,2.66,2.66,0,0,0,1.09-.79,1.85,1.85,0,0,0,.4-1.15,2,2,0,0,0-.4-1.22,2.55,2.55,0,0,0-1.08-.8,4.12,4.12,0,0,0-1.58-.28h-5.79v4.52Z"/><path class="cls-1" d="M324.88,30.06H327l5.91,13H331l-1.4-3h-7.36l-1.39,3h-1.94ZM329,38.45l-3-6.71-3.05,6.71Z"/><path class="cls-1" d="M334.06,30.06h2.33L344.6,41V30.06h1.8v13h-2.34l-8.2-10.89V43.05h-1.8Z"/><path class="cls-1" d="M351.88,42.62a6.68,6.68,0,0,1-2.77-2.48,6.94,6.94,0,0,1,0-7.16,6.66,6.66,0,0,1,2.74-2.48,8.55,8.55,0,0,1,4-.9,8.18,8.18,0,0,1,2.78.49,7.09,7.09,0,0,1,2.31,1.34,4.49,4.49,0,0,1,1.33,2l-1.65.53a3,3,0,0,0-1-1.41,5.42,5.42,0,0,0-1.72-1,6,6,0,0,0-2.06-.36,6.52,6.52,0,0,0-3,.69,5.11,5.11,0,0,0-2.84,4.7,5,5,0,0,0,.8,2.78,5.39,5.39,0,0,0,2.19,1.92,7.1,7.1,0,0,0,3.17.69,6.94,6.94,0,0,0,2.94-.62,5.52,5.52,0,0,0,2.14-1.65,3.76,3.76,0,0,0,.79-2.29h-9V35.84h10.74v7.21h-1.49L362,40.64a6.82,6.82,0,0,1-2.57,2.11,8.13,8.13,0,0,1-3.57.76A8.79,8.79,0,0,1,351.88,42.62Z"/><path class="cls-1" d="M55.8,61.44a1.14,1.14,0,0,1-.46-.44,1.42,1.42,0,0,1,0-1.31,1.22,1.22,0,0,1,.46-.44,1.55,1.55,0,0,1,1.33,0,1.22,1.22,0,0,1,.46.44,1.42,1.42,0,0,1,0,1.31,1.14,1.14,0,0,1-.46.44,1.46,1.46,0,0,1-1.33,0Z"/><path class="cls-1" d="M64.47,58.27h8.74V59H64.47ZM67,53.06h6a9.14,9.14,0,0,1,4,.81,6.24,6.24,0,0,1,2.65,2.28,6.64,6.64,0,0,1,0,6.81,6.24,6.24,0,0,1-2.65,2.28,9.14,9.14,0,0,1-4,.81H67Zm6,11.43a7.12,7.12,0,0,0,3-.6,4.69,4.69,0,0,0,2-1.71,5.21,5.21,0,0,0,0-5.25,4.69,4.69,0,0,0-2-1.71,7.28,7.28,0,0,0-3-.6H68.75v9.87Z"/><path class="cls-1" d="M85.74,65.63a6.73,6.73,0,0,1-2.82-2.47,6.9,6.9,0,0,1,0-7.19,6.83,6.83,0,0,1,2.82-2.48,10,10,0,0,1,8.23,0A6.83,6.83,0,0,1,96.79,56a6.9,6.9,0,0,1,0,7.19A6.73,6.73,0,0,1,94,65.63a10.06,10.06,0,0,1-8.23,0ZM93,64.26a5.34,5.34,0,0,0,2.19-1.93,5.27,5.27,0,0,0,0-5.55A5.39,5.39,0,0,0,93,54.86a7.05,7.05,0,0,0-3.16-.69,7.15,7.15,0,0,0-3.19.69,5.3,5.3,0,0,0-2.18,1.92,5.33,5.33,0,0,0,0,5.55,5.25,5.25,0,0,0,2.18,1.93,7.15,7.15,0,0,0,3.19.69A7.05,7.05,0,0,0,93,64.26ZM86.31,51.09l3-2h1l3,2-.42.61-3.11-2-3.09,2Z"/><path class="cls-1" d="M99.5,53.06h1.8v13H99.5Z"/><path class="cls-1" d="M113.72,54.62h-5.21V53.06h12.2v1.56h-5.19V66.05h-1.8Z"/><path class="cls-1" d="M121.85,53.06h1.8v5.41h8.71V53.06h1.8v13h-1.8V60h-8.71v6h-1.8Z"/><path class="cls-1" d="M139.7,65.63a6.86,6.86,0,0,1-2.82-2.47,6.9,6.9,0,0,1,0-7.19,7,7,0,0,1,2.82-2.48,10,10,0,0,1,8.23,0A6.83,6.83,0,0,1,150.75,56a6.85,6.85,0,0,1,0,7.19,6.73,6.73,0,0,1-2.82,2.47,10.06,10.06,0,0,1-8.23,0ZM147,64.26a5.28,5.28,0,0,0,2.19-1.93,5.27,5.27,0,0,0,0-5.55A5.33,5.33,0,0,0,147,54.86a7,7,0,0,0-3.16-.69,7.15,7.15,0,0,0-3.19.69,5.27,5.27,0,0,0-2.17,1.92,5.27,5.27,0,0,0,0,5.55,5.22,5.22,0,0,0,2.17,1.93,7.15,7.15,0,0,0,3.19.69A7,7,0,0,0,147,64.26Z"/><path class="cls-1" d="M157.62,53.06h2.13l5.91,13h-1.92l-1.39-3H155l-1.4,3h-1.93Zm4.08,8.39-3-6.71-3.05,6.71Z"/><path class="cls-1" d="M166.8,53.06h1.8v13h-1.8Z"/><path class="cls-1" d="M176.7,53.06h1.8v5.41h8.7V53.06H189v13h-1.8V60h-8.7v6h-1.8Z"/><path class="cls-1" d="M194.54,65.63a6.77,6.77,0,0,1-2.81-2.47,6.9,6.9,0,0,1,0-7.19,6.86,6.86,0,0,1,2.81-2.48,10,10,0,0,1,8.24,0A6.89,6.89,0,0,1,205.6,56a6.9,6.9,0,0,1,0,7.19,6.8,6.8,0,0,1-2.82,2.47,10.08,10.08,0,0,1-8.24,0Zm7.29-1.37A5.34,5.34,0,0,0,204,62.33a5.27,5.27,0,0,0,0-5.55,5.39,5.39,0,0,0-2.19-1.92,7.65,7.65,0,0,0-6.35,0,5.3,5.3,0,0,0-2.18,1.92,5.33,5.33,0,0,0,0,5.55,5.25,5.25,0,0,0,2.18,1.93,7.65,7.65,0,0,0,6.35,0Z"/><path class="cls-1" d="M211.81,65.62A6.87,6.87,0,0,1,209,63.13a6.55,6.55,0,0,1-1-3.57,6.81,6.81,0,0,1,.95-3.57,6.6,6.6,0,0,1,2.64-2.49,8,8,0,0,1,3.81-.9,7.69,7.69,0,0,1,2.83.53,7,7,0,0,1,2.33,1.47A5.54,5.54,0,0,1,222,56.74l-1.65.53a4.11,4.11,0,0,0-1-1.6,5.09,5.09,0,0,0-1.73-1.11,6.3,6.3,0,0,0-5.05.3,5.06,5.06,0,0,0-2,1.92,5.41,5.41,0,0,0-.72,2.78,5.06,5.06,0,0,0,.79,2.77,5.22,5.22,0,0,0,2.17,1.93,6.88,6.88,0,0,0,3.12.69,6.24,6.24,0,0,0,2.52-.51,5.89,5.89,0,0,0,2-1.38,4.33,4.33,0,0,0,1.05-2l1.7.48a5.82,5.82,0,0,1-1.39,2.55,7.37,7.37,0,0,1-2.57,1.77,8.5,8.5,0,0,1-3.27.63A9.07,9.07,0,0,1,211.81,65.62Z"/><path class="cls-1" d="M229.63,58.27h8.74V59h-8.74Zm2.48-5.21h6a9.14,9.14,0,0,1,3.95.81,6.25,6.25,0,0,1,0,11.37,9.14,9.14,0,0,1-3.95.81h-6Zm6,11.43a7.12,7.12,0,0,0,3-.6,4.53,4.53,0,0,0,2.75-4.33,4.76,4.76,0,0,0-.72-2.63,4.69,4.69,0,0,0-2-1.71,7.28,7.28,0,0,0-3-.6h-4.23v9.87Z"/><path class="cls-1" d="M250.24,65.77A5.46,5.46,0,0,1,248,63.69a6,6,0,0,1-.81-3.16V53.06H249v7.47a4.5,4.5,0,0,0,.58,2.31,4,4,0,0,0,1.59,1.55,4.82,4.82,0,0,0,2.34.56,4.87,4.87,0,0,0,2.32-.54,3.82,3.82,0,0,0,1.58-1.53,4.67,4.67,0,0,0,.57-2.35V53.06h1.78v7.47a6,6,0,0,1-.8,3.16,5.37,5.37,0,0,1-2.22,2.08,7.51,7.51,0,0,1-6.5,0Z"/><path class="cls-1" d="M265.12,65.63a6.86,6.86,0,0,1-2.82-2.47,6.9,6.9,0,0,1,0-7.19,7,7,0,0,1,2.82-2.48,10,10,0,0,1,8.23,0A6.92,6.92,0,0,1,276.18,56a6.9,6.9,0,0,1,0,7.19,6.82,6.82,0,0,1-2.83,2.47,10.06,10.06,0,0,1-8.23,0Zm7.28-1.37a5.22,5.22,0,0,0,2.19-1.93,5.27,5.27,0,0,0,0-5.55,5.26,5.26,0,0,0-2.19-1.92,7.63,7.63,0,0,0-6.34,0,5.24,5.24,0,0,0-2.18,1.92,5.27,5.27,0,0,0,0,5.55,5.19,5.19,0,0,0,2.18,1.93,7.63,7.63,0,0,0,6.34,0Zm-5.55-14.77.49-.55,2.51,2.23-.48.53Z"/><path class="cls-1" d="M278.88,53.06h2.34L289.42,64V53.06h1.81v13h-2.34l-8.21-10.89V66.05h-1.8Z"/><path class="cls-1" d="M296.7,65.62a6.7,6.7,0,0,1-2.77-2.49,7,7,0,0,1,0-7.15,6.81,6.81,0,0,1,2.74-2.49,8.72,8.72,0,0,1,4-.89,8,8,0,0,1,2.78.49,7,7,0,0,1,2.3,1.34,4.54,4.54,0,0,1,1.34,1.94l-1.66.54a3.1,3.1,0,0,0-1-1.41,5.67,5.67,0,0,0-1.72-1,6.23,6.23,0,0,0-2.06-.35,6.56,6.56,0,0,0-3.05.69,5.11,5.11,0,0,0-2.84,4.7,5,5,0,0,0,.8,2.77,5.37,5.37,0,0,0,2.2,1.93,7.46,7.46,0,0,0,6.11.07A5.48,5.48,0,0,0,306,62.67a3.66,3.66,0,0,0,.79-2.29h-9V58.84h10.75v7.21h-1.49l-.24-2.41a6.77,6.77,0,0,1-2.58,2.11,8.07,8.07,0,0,1-3.57.76A8.79,8.79,0,0,1,296.7,65.62Z"/><path class="cls-1" d="M52.51,84.44a1.09,1.09,0,0,1-.46-.44,1.35,1.35,0,0,1,0-1.31,1.09,1.09,0,0,1,.46-.44,1.46,1.46,0,0,1,.66-.16,1.4,1.4,0,0,1,.66.16,1.09,1.09,0,0,1,.46.44,1.35,1.35,0,0,1,0,1.31,1.09,1.09,0,0,1-.46.44,1.4,1.4,0,0,1-.66.16A1.46,1.46,0,0,1,52.51,84.44Z"/><path class="cls-1" d="M62.19,76.06H64V87.49h7.36v1.56H62.19Z"/><path class="cls-1" d="M72.51,76.06h1.8v13h-1.8Z"/><path class="cls-1" d="M76.33,76.06H87.1v1.56h-9v4h8.28v1.52H78.08v4.37h9.2v1.56h-11Zm2.1-2,3-2h1l3,2-.43.61-3.1-2-3.1,2Z"/><path class="cls-1" d="M88.72,76.06h2.33L99.26,87V76.06h1.8v13H98.72l-8.2-10.89V89.05h-1.8Z"/><path class="cls-1" d="M109.16,76.06H111v5.41h8.7V76.06h1.8v13h-1.8V83H111v6h-1.8Z"/><path class="cls-1" d="M127,88.63a6.84,6.84,0,0,1-2.81-2.47,6.9,6.9,0,0,1,0-7.19A6.86,6.86,0,0,1,127,76.49a10,10,0,0,1,8.24,0A6.89,6.89,0,0,1,138.06,79a6.9,6.9,0,0,1,0,7.19,6.87,6.87,0,0,1-2.82,2.47,10.08,10.08,0,0,1-8.24,0Zm7.29-1.38a5.39,5.39,0,0,0,2.19-1.92,5.27,5.27,0,0,0,0-5.55,5.34,5.34,0,0,0-2.19-1.93,7.65,7.65,0,0,0-6.35,0,5.25,5.25,0,0,0-2.18,1.93,5.33,5.33,0,0,0,0,5.55,5.3,5.3,0,0,0,2.18,1.92,7.55,7.55,0,0,0,6.35,0Z"/><path class="cls-1" d="M144.92,76.06h2.14l5.9,13h-1.91l-1.4-3h-7.36l-1.4,3H139ZM149,84.45l-3-6.72-3.05,6.72Z"/><path class="cls-1" d="M154.1,76.06h2.34L164.65,87V76.06h1.8v13h-2.34l-8.2-10.89V89.05H154.1Z"/><path class="cls-1" d="M177.63,89a7,7,0,0,1-2.41-1.53,5,5,0,0,1-1.32-2.21l1.62-.66a3.34,3.34,0,0,0,1,1.72,5.4,5.4,0,0,0,1.88,1.21,6.71,6.71,0,0,0,2.42.44,5.53,5.53,0,0,0,1.95-.32,3.06,3.06,0,0,0,1.31-.84,1.81,1.81,0,0,0,.46-1.18,1.35,1.35,0,0,0-.55-1.12,4,4,0,0,0-1.38-.65c-.56-.14-1.32-.3-2.29-.47a25.83,25.83,0,0,1-2.9-.65,4.64,4.64,0,0,1-1.89-1.07,2.67,2.67,0,0,1-.78-2,3.49,3.49,0,0,1,.66-2.09,4.28,4.28,0,0,1,1.83-1.4,6.78,6.78,0,0,1,2.66-.5,7.46,7.46,0,0,1,2.48.41,5.76,5.76,0,0,1,1.95,1.17,4.23,4.23,0,0,1,1.13,1.73l-1.51.76a3.38,3.38,0,0,0-1.47-1.8,4.79,4.79,0,0,0-2.58-.69,4.67,4.67,0,0,0-1.72.3,2.82,2.82,0,0,0-1.19.79,1.65,1.65,0,0,0-.44,1.12,1.32,1.32,0,0,0,.55,1.11,3.83,3.83,0,0,0,1.35.63c.52.14,1.27.3,2.24.47a26.12,26.12,0,0,1,2.94.65,4.79,4.79,0,0,1,1.92,1.09,2.66,2.66,0,0,1,.79,2,3.45,3.45,0,0,1-.7,2.13,4.49,4.49,0,0,1-2,1.46,7.46,7.46,0,0,1-2.9.53A8.59,8.59,0,0,1,177.63,89Z"/><path class="cls-1" d="M192.57,76.06h2.14l5.9,13H198.7l-1.4-3h-7.36l-1.4,3h-1.93Zm4.09,8.39-3-6.72-3,6.72Z"/><path class="cls-1" d="M204.06,88.77a5.42,5.42,0,0,1-2.23-2.09,6,6,0,0,1-.81-3.15V76.06h1.8v7.47a4.61,4.61,0,0,0,.58,2.31A4,4,0,0,0,205,87.39a4.82,4.82,0,0,0,2.34.56,4.87,4.87,0,0,0,2.32-.54,3.88,3.88,0,0,0,1.58-1.53,4.7,4.7,0,0,0,.57-2.35V76.06h1.79v7.47a6.09,6.09,0,0,1-.8,3.15,5.42,5.42,0,0,1-2.23,2.09,7.51,7.51,0,0,1-6.5,0Z"/><path class="cls-1" d="M225,88.62a6.77,6.77,0,0,1-2.77-2.49,6.55,6.55,0,0,1-1-3.58,6.62,6.62,0,0,1,1-3.57,6.75,6.75,0,0,1,2.74-2.49,8.67,8.67,0,0,1,4-.89,7.94,7.94,0,0,1,2.78.49A6.92,6.92,0,0,1,234,77.43a4.43,4.43,0,0,1,1.33,1.94l-1.65.54a3.1,3.1,0,0,0-1-1.41,5.61,5.61,0,0,0-1.73-1,6,6,0,0,0-2.06-.36,6.52,6.52,0,0,0-3,.69,5.13,5.13,0,0,0-2.84,4.7,4.94,4.94,0,0,0,.8,2.78,5.35,5.35,0,0,0,2.2,1.92,7,7,0,0,0,3.16.7,6.94,6.94,0,0,0,2.94-.62,5.44,5.44,0,0,0,2.14-1.66,3.72,3.72,0,0,0,.79-2.29h-9V81.84H236.8v7.21h-1.49l-.24-2.41a6.91,6.91,0,0,1-2.57,2.11,8.27,8.27,0,0,1-3.57.76A8.79,8.79,0,0,1,225,88.62Z"/><path class="cls-1" d="M238.5,76.06h1.8v13h-1.8Z"/><path class="cls-1" d="M245.84,88.63A6.93,6.93,0,0,1,243,86.16,6.9,6.9,0,0,1,243,79a7,7,0,0,1,2.82-2.48,10,10,0,0,1,8.23,0A6.92,6.92,0,0,1,256.9,79a6.9,6.9,0,0,1,0,7.19,6.89,6.89,0,0,1-2.83,2.47,10.06,10.06,0,0,1-8.23,0Zm7.28-1.38a5.26,5.26,0,0,0,2.19-1.92,5.27,5.27,0,0,0,0-5.55,5.22,5.22,0,0,0-2.19-1.93,7.63,7.63,0,0,0-6.34,0,5.19,5.19,0,0,0-2.18,1.93,5.27,5.27,0,0,0,0,5.55,5.24,5.24,0,0,0,2.18,1.92,7.53,7.53,0,0,0,6.34,0Zm-5.55-14.76.49-.55,2.51,2.22-.48.54Z"/><path class="cls-1" d="M265.67,76.06h1.8v5.41h8.71V76.06H278v13h-1.8V83h-8.71v6h-1.8Z"/><path class="cls-1" d="M283.52,88.63a6.87,6.87,0,0,1-2.82-2.47,6.9,6.9,0,0,1,0-7.19,6.89,6.89,0,0,1,2.82-2.48,10,10,0,0,1,8.23,0A6.83,6.83,0,0,1,294.57,79a6.85,6.85,0,0,1,0,7.19,6.8,6.8,0,0,1-2.82,2.47,10.06,10.06,0,0,1-8.23,0Zm7.28-1.38A5.39,5.39,0,0,0,293,85.33a5.27,5.27,0,0,0,0-5.55,5.34,5.34,0,0,0-2.19-1.93,7,7,0,0,0-3.16-.69,7.15,7.15,0,0,0-3.19.69,5.31,5.31,0,0,0-2.18,1.93,5.33,5.33,0,0,0,0,5.55,5.36,5.36,0,0,0,2.18,1.92,7.16,7.16,0,0,0,3.19.7A7,7,0,0,0,290.8,87.25Z"/><path class="cls-1" d="M300.78,88.62a6.92,6.92,0,0,1-2.8-2.49,6.47,6.47,0,0,1-1-3.58,6.79,6.79,0,0,1,.94-3.56,6.6,6.6,0,0,1,2.64-2.49,8,8,0,0,1,3.81-.9,7.74,7.74,0,0,1,2.84.52,6.83,6.83,0,0,1,2.32,1.48A5.68,5.68,0,0,1,311,79.74l-1.66.53a4.15,4.15,0,0,0-1-1.61,5,5,0,0,0-1.73-1.1,5.77,5.77,0,0,0-2.17-.4,6,6,0,0,0-2.88.69,4.93,4.93,0,0,0-2,1.93,5.37,5.37,0,0,0-.72,2.77,5.09,5.09,0,0,0,.78,2.78,5.33,5.33,0,0,0,2.17,1.92,7,7,0,0,0,3.12.7,6.17,6.17,0,0,0,2.52-.51,5.79,5.79,0,0,0,2-1.38,4.35,4.35,0,0,0,1.06-2l1.69.48a5.73,5.73,0,0,1-1.39,2.55,7.18,7.18,0,0,1-2.56,1.76,8.34,8.34,0,0,1-3.28.64A9.07,9.07,0,0,1,300.78,88.62Z"/><path class="cls-1" d="M60.4,99.06h2l4.95,11,4.93-11h2l-5.87,13h-2Z"/><path class="cls-1" d="M78.71,99.06h2.13l5.91,13H84.83l-1.39-3H76.08l-1.4,3H72.75Zm4.08,8.39-3-6.72-3.06,6.72Zm-5.42-12,.49-.55,2.5,2.22-.47.54Z"/><path class="cls-1" d="M97.46,111.61a6.82,6.82,0,0,1-2.8-2.48,6.47,6.47,0,0,1-1-3.58,6.85,6.85,0,0,1,.94-3.57,6.74,6.74,0,0,1,2.65-2.48,7.93,7.93,0,0,1,3.8-.9,7.74,7.74,0,0,1,2.84.52,7,7,0,0,1,2.32,1.47,5.67,5.67,0,0,1,1.43,2.15l-1.66.53a4,4,0,0,0-1-1.61,4.88,4.88,0,0,0-1.73-1.1,5.74,5.74,0,0,0-2.17-.4,6,6,0,0,0-2.88.69,5,5,0,0,0-2,1.92,5.43,5.43,0,0,0-.72,2.78,5.09,5.09,0,0,0,.78,2.78,5.33,5.33,0,0,0,2.17,1.92,6.94,6.94,0,0,0,3.12.69,6.33,6.33,0,0,0,2.52-.5,5.69,5.69,0,0,0,2-1.38,4.31,4.31,0,0,0,1.06-2l1.69.48a5.73,5.73,0,0,1-1.39,2.55,7.18,7.18,0,0,1-2.56,1.76,8.52,8.52,0,0,1-3.28.64A8.94,8.94,0,0,1,97.46,111.61Z"/><path class="cls-1" d="M113.74,111.62a6.84,6.84,0,0,1-2.82-2.46,6.92,6.92,0,0,1,0-7.2,6.93,6.93,0,0,1,2.82-2.47,10,10,0,0,1,8.23,0A6.89,6.89,0,0,1,124.8,102a6.92,6.92,0,0,1,0,7.2,6.8,6.8,0,0,1-2.83,2.46,10,10,0,0,1-8.23,0Zm7.28-1.37a5.26,5.26,0,0,0,2.19-1.92,5.29,5.29,0,0,0,0-5.56,5.26,5.26,0,0,0-2.19-1.92,7.63,7.63,0,0,0-6.34,0,5.24,5.24,0,0,0-2.18,1.92,5.29,5.29,0,0,0,0,5.56,5.24,5.24,0,0,0,2.18,1.92,7.63,7.63,0,0,0,6.34,0Zm-5.55-14.76.49-.55,2.51,2.22-.48.54Z"/><path class="cls-1" d="M127.5,99.06h2.34L138,110V99.06h1.81v13h-2.34l-8.21-10.89v10.89h-1.8Z"/><path class="cls-1" d="M147.94,99.06h1.8v5.41h8.71V99.06h1.8v13h-1.8v-6h-8.71v6h-1.8Z"/><path class="cls-1" d="M165.79,111.62a6.77,6.77,0,0,1-2.82-2.46,6.92,6.92,0,0,1,0-7.2,6.87,6.87,0,0,1,2.82-2.47,10,10,0,0,1,8.23,0,6.8,6.8,0,0,1,2.82,2.47,6.86,6.86,0,0,1,0,7.2,6.71,6.71,0,0,1-2.82,2.46,10,10,0,0,1-8.23,0Zm7.28-1.37a5.39,5.39,0,0,0,2.19-1.92,5.29,5.29,0,0,0,0-5.56,5.39,5.39,0,0,0-2.19-1.92,7,7,0,0,0-3.16-.69,7.15,7.15,0,0,0-3.19.69,5.36,5.36,0,0,0-2.18,1.92,5.34,5.34,0,0,0,0,5.56,5.36,5.36,0,0,0,2.18,1.92,7.15,7.15,0,0,0,3.19.69A7,7,0,0,0,173.07,110.25Z"/><path class="cls-1" d="M179.55,99.06h2.33L190.09,110V99.06h1.8v13h-2.33l-8.21-10.89v10.89h-1.8Z"/><path class="cls-1" d="M204.31,100.62h-5.2V99.06H211.3v1.56h-5.18v11.43h-1.81Z"/><path class="cls-1" d="M212.44,99.06h1.81v5.41H223V99.06h1.8v13H223v-6h-8.7v6h-1.81Z"/><path class="cls-1" d="M226.78,99.06h10.76v1.56h-9v4h8.28v1.52h-8.28v4.36h9.2v1.57H226.78Zm2.09-2,3-2h1l3,2-.42.61-3.11-2-3.09,2Z"/><path class="cls-1" d="M245.23,99.06h2.34l8.2,10.89V99.06h1.81v13h-2.34L247,101.16v10.89h-1.8Z"/><path class="cls-1" d="M262.46,111.77a5.51,5.51,0,0,1-2.24-2.09,6,6,0,0,1-.8-3.15V99.06h1.8v7.47a4.5,4.5,0,0,0,.58,2.31,4,4,0,0,0,1.59,1.55,5.28,5.28,0,0,0,4.65,0,3.87,3.87,0,0,0,1.59-1.54,4.64,4.64,0,0,0,.57-2.34V99.06H272v7.47a6.09,6.09,0,0,1-.8,3.15,5.36,5.36,0,0,1-2.23,2.09,7.48,7.48,0,0,1-6.49,0Z"/><path class="cls-1" d="M278.35,99.06h2.13l5.91,13h-1.92l-1.39-3h-7.36l-1.4,3h-1.93Zm4.08,8.39-3-6.72-3.05,6.72Z"/><path class="cls-1" d="M293.55,112a1.15,1.15,0,0,1,.84-2,1.15,1.15,0,0,1,.85.32,1.2,1.2,0,0,1,0,1.65,1.16,1.16,0,0,1-.85.33A1.14,1.14,0,0,1,293.55,112Z"/><path class="cls-1" d="M297.18,112a1.15,1.15,0,0,1,.83-2,1.14,1.14,0,0,1,.85.32,1.2,1.2,0,0,1,0,1.65,1.15,1.15,0,0,1-.85.33A1.1,1.1,0,0,1,297.18,112Z"/><path class="cls-1" d="M300.8,112a1.22,1.22,0,0,1,0-1.65,1.12,1.12,0,0,1,.84-.32,1.13,1.13,0,0,1,.84.32,1.17,1.17,0,0,1,0,1.65,1.14,1.14,0,0,1-.84.33A1.12,1.12,0,0,1,300.8,112Z"/><path class="cls-1" d="M197.27,70.12a1.14,1.14,0,0,1-.33-.84,1.11,1.11,0,0,1,.33-.82,1.13,1.13,0,0,1,.83-.32,1.18,1.18,0,0,1,.85.32,1.11,1.11,0,0,1,.33.82,1.14,1.14,0,0,1-.33.84,1.18,1.18,0,0,1-.85.32A1.13,1.13,0,0,1,197.27,70.12Z"/><path class="cls-1" d="M273.88,96.57a1.73,1.73,0,0,1,.54,1.2,2.4,2.4,0,0,1-.47,1.4,5.14,5.14,0,0,1-1.35,1.26,7.16,7.16,0,0,1-2,.85l-.3-.57a6.89,6.89,0,0,0,1.7-.74,4.07,4.07,0,0,0,1.17-1,1.76,1.76,0,0,0,.43-1.08,1,1,0,0,0-.32-.75,1.09,1.09,0,0,0-.77-.28,1.8,1.8,0,0,0-.77.18,1.36,1.36,0,0,0-.59.48l-.55-.52a2.45,2.45,0,0,1,.85-.63,2.56,2.56,0,0,1,1.1-.25A1.83,1.83,0,0,1,273.88,96.57Z"/><path class="cls-1" d="M178.19,96.57a1.73,1.73,0,0,1,.54,1.2,2.33,2.33,0,0,1-.47,1.4,5.14,5.14,0,0,1-1.35,1.26,7.16,7.16,0,0,1-1.95.85l-.3-.57a6.89,6.89,0,0,0,1.7-.74,4.07,4.07,0,0,0,1.17-1,1.76,1.76,0,0,0,.43-1.08,1,1,0,0,0-.32-.75,1.09,1.09,0,0,0-.77-.28,1.8,1.8,0,0,0-.77.18,1.36,1.36,0,0,0-.59.48L175,97a2.45,2.45,0,0,1,.85-.63,2.56,2.56,0,0,1,1.1-.25A1.83,1.83,0,0,1,178.19,96.57Z"/><path class="cls-1" d="M257.59,73.93a1.69,1.69,0,0,1,.55,1.2,2.38,2.38,0,0,1-.47,1.4,4.75,4.75,0,0,1-1.36,1.26,6.63,6.63,0,0,1-1.95.85l-.29-.57a7,7,0,0,0,1.69-.73,4.3,4.3,0,0,0,1.18-1,1.81,1.81,0,0,0,.42-1.09.94.94,0,0,0-.31-.74,1.1,1.1,0,0,0-.77-.29,1.77,1.77,0,0,0-.77.18,1.52,1.52,0,0,0-.59.48l-.56-.51a2.39,2.39,0,0,1,.86-.64,2.7,2.7,0,0,1,1.09-.25A1.84,1.84,0,0,1,257.59,73.93Z"/><path class="cls-1" d="M277.22,49.94a1.68,1.68,0,0,1,.54,1.19,2.38,2.38,0,0,1-.47,1.4,4.83,4.83,0,0,1-1.35,1.26,6.88,6.88,0,0,1-1.95.86l-.3-.57a7,7,0,0,0,1.69-.74,4.14,4.14,0,0,0,1.18-1,1.81,1.81,0,0,0,.42-1.09,1,1,0,0,0-.31-.74,1.1,1.1,0,0,0-.77-.29,1.65,1.65,0,0,0-.77.19,1.36,1.36,0,0,0-.59.48l-.55-.52a2.27,2.27,0,0,1,.85-.64,2.7,2.7,0,0,1,1.1-.24A1.83,1.83,0,0,1,277.22,49.94Z"/><path class="cls-1" d="M262.22,49.94a1.68,1.68,0,0,1,.54,1.19,2.38,2.38,0,0,1-.47,1.4,4.83,4.83,0,0,1-1.35,1.26,6.88,6.88,0,0,1-1.95.86l-.3-.57a7,7,0,0,0,1.69-.74,4.14,4.14,0,0,0,1.18-1,1.81,1.81,0,0,0,.42-1.09,1,1,0,0,0-.31-.74,1.1,1.1,0,0,0-.77-.29,1.65,1.65,0,0,0-.77.19,1.36,1.36,0,0,0-.59.48l-.55-.52a2.27,2.27,0,0,1,.85-.64,2.7,2.7,0,0,1,1.1-.24A1.83,1.83,0,0,1,262.22,49.94Z"/><path class="cls-1" d="M157.82,69.82a1.13,1.13,0,0,1-.32-.84,1.1,1.1,0,0,1,.32-.82,1.14,1.14,0,0,1,.84-.32,1.17,1.17,0,0,1,.84.32,1.11,1.11,0,0,1,.33.82,1.14,1.14,0,0,1-.33.84,1.17,1.17,0,0,1-.84.32A1.14,1.14,0,0,1,157.82,69.82Z"/><path class="cls-1" d="M92.86,48.56l3-2.6.51.54-3,2.59Z"/><path class="cls-1" d="M51.66,27.38a1.62,1.62,0,0,1,.54,1.19,2.29,2.29,0,0,1-.47,1.4,4.57,4.57,0,0,1-1.35,1.26,6.88,6.88,0,0,1-2,.86l-.29-.57a7.2,7.2,0,0,0,1.69-.74,4.26,4.26,0,0,0,1.18-1,1.8,1.8,0,0,0,.42-1.08,1,1,0,0,0-.31-.75,1.12,1.12,0,0,0-.78-.29,1.86,1.86,0,0,0-.77.19,1.42,1.42,0,0,0-.59.48l-.55-.52a2.19,2.19,0,0,1,.86-.63,2.51,2.51,0,0,1,1.09-.25A1.81,1.81,0,0,1,51.66,27.38Z"/><path class="cls-1" d="M166.08,22.21a1.62,1.62,0,0,1,.54,1.19,2.23,2.23,0,0,1-.47,1.4,4.57,4.57,0,0,1-1.35,1.26,6.64,6.64,0,0,1-2,.86l-.29-.57a7.2,7.2,0,0,0,1.69-.74,4.12,4.12,0,0,0,1.18-1,1.8,1.8,0,0,0,.42-1.08,1,1,0,0,0-.31-.75,1.12,1.12,0,0,0-.77-.29,1.86,1.86,0,0,0-.78.19,1.49,1.49,0,0,0-.59.48l-.55-.52a2.27,2.27,0,0,1,.86-.63,2.51,2.51,0,0,1,1.09-.25A1.81,1.81,0,0,1,166.08,22.21Z"/><path class="cls-1" d="M280.14,27.38a1.62,1.62,0,0,1,.54,1.19,2.29,2.29,0,0,1-.47,1.4,4.57,4.57,0,0,1-1.35,1.26,6.88,6.88,0,0,1-1.95.86l-.29-.57a7.2,7.2,0,0,0,1.69-.74,4.26,4.26,0,0,0,1.18-1,1.8,1.8,0,0,0,.42-1.08,1,1,0,0,0-.31-.75,1.12,1.12,0,0,0-.78-.29,1.86,1.86,0,0,0-.77.19,1.42,1.42,0,0,0-.59.48l-.55-.52a2.19,2.19,0,0,1,.86-.63,2.51,2.51,0,0,1,1.09-.25A1.81,1.81,0,0,1,280.14,27.38Z"/><path class="cls-1" d="M211.64,24.49a6.57,6.57,0,0,1-1-.77,4.75,4.75,0,0,0-.8-.65,1.35,1.35,0,0,0-.76-.22,1.28,1.28,0,0,0-1,.48,1.9,1.9,0,0,0-.39,1.24h-.74a2.54,2.54,0,0,1,.62-1.76,2,2,0,0,1,1.55-.69,1.89,1.89,0,0,1,1,.26,5.39,5.39,0,0,1,.95.73,5.61,5.61,0,0,0,.83.69,1.37,1.37,0,0,0,.75.21,1.28,1.28,0,0,0,1-.48,1.9,1.9,0,0,0,.41-1.25h.75a2.57,2.57,0,0,1-.61,1.77,2,2,0,0,1-1.58.7A2,2,0,0,1,211.64,24.49Z"/><path class="cls-1" d="M286.79,92.66a1.24,1.24,0,0,1,0-1.66,1.26,1.26,0,0,1,1.68,0,1.18,1.18,0,0,1,0,1.66,1.26,1.26,0,0,1-1.68,0Z"/><path class="cls-1" d="M230.09,23.58a1.13,1.13,0,0,1-.32-.84,1.1,1.1,0,0,1,.32-.82,1.13,1.13,0,0,1,.83-.32,1.18,1.18,0,0,1,.85.32,1.11,1.11,0,0,1,.33.82,1.14,1.14,0,0,1-.33.84,1.18,1.18,0,0,1-.85.32A1.13,1.13,0,0,1,230.09,23.58Z"/><path class="cls-1" d="M55.62,23.58a1.13,1.13,0,0,1-.32-.84,1.1,1.1,0,0,1,.32-.82,1.13,1.13,0,0,1,.83-.32,1.18,1.18,0,0,1,.85.32,1.11,1.11,0,0,1,.33.82,1.14,1.14,0,0,1-.33.84,1.18,1.18,0,0,1-.85.32A1.13,1.13,0,0,1,55.62,23.58Z"/><path class="cls-1" d="M171.72.53l.52-.53,3,2.59-.5.54Z"/></g></g></svg>