<?xml version="1.0" encoding="utf-8"?>
<!-- Generator: Adobe Illustrator 24.0.1, SVG Export Plug-In . SVG Version: 6.00 Build 0)  -->
<svg version="1.1" id="Layer_1" xmlns="http://www.w3.org/2000/svg" xmlns:xlink="http://www.w3.org/1999/xlink" x="0px" y="0px"
	 viewBox="0 0 123.1 75" style="enable-background:new 0 0 123.1 75;" xml:space="preserve">
<title>sg-show-icon</title>
<g id="Layer_2_1_">
	<g id="Layer_1-2">
		<path d="M0,11.6l28.5,4.2v54.9L0,75V11.6z M11.6,65.8v-45l-4.2-0.6v46.3L11.6,65.8z M21.1,64.4V22.2l-4.2-0.6v43.5L21.1,64.4z
			 M32.8,15.9C41.1,10.5,57.4,0,64.3,0c6,0,8.8,4,14,11.6H105c13.4,0,18.1,4.7,18.1,13.2S118.4,38,105,38H89v11.1
			C89,65,78.4,70.8,61.5,70.8H32.8V15.9z M61.5,63.9c14.7,0,20.1-4.7,20.1-14.8v-18H105c9.1,0,10.7-2,10.7-6.3s-1.6-6.3-10.7-6.3
			H57.8v-1.2c4.2-1.7,8.6-3,13-4c-3.5-5.1-4.8-5.8-7.2-5.8c-3.5,0-10.5,4-23.5,12.1v44.4H61.5z"/>
	</g>
</g>
</svg>
