<?xml version="1.0" encoding="utf-8"?>
<!-- Generator: Adobe Illustrator 24.0.1, SVG Export Plug-In . SVG Version: 6.00 Build 0)  -->
<svg version="1.1" id="Layer_1" xmlns="http://www.w3.org/2000/svg" xmlns:xlink="http://www.w3.org/1999/xlink" x="0px" y="0px"
	 viewBox="0 0 1500 2500" style="enable-background:new 0 0 1500 2500;" xml:space="preserve">
<style type="text/css">
	.st0{fill:#FF00FF;}
</style>
<path class="st0" d="M1495,2047l-19.4,5.2c-54.7,14.6-109.1,40.6-161.7,77.1c-51.5,35.8-101.4,81.8-148.3,136.9
	c-7.5,8.8-21.2,23.6-36.3,37.8c0.3-37.3-6.1-72.6-19-104.7c-25.3-62.4-73.7-109-140.1-135c-91.2-35.7-191-34.9-288.6,2.2
	c-93.7,35.7-183.1,102.8-265.6,199.6c-7.6,9-21.7,24.2-37,38.5c0.4-39.6-6.7-77-21.2-110.5c-25.8-59.8-73.5-104.7-137.9-129.9
	c-38.9-15.2-79.6-23.9-120.9-25.9c-34.3-1.6-69.2,1.4-104,9v154.8l19.4-5.2c52.4-14,103.2-11.7,150.9,6.9c27,10.6,45,26.8,54.9,49.7
	c10.7,24.8,11.8,57.2,3.1,93.8c-0.7,3-1.2,6-1.6,9.1c0,0,0,0.2-0.1,0.5c-3.7,14.4-5.3,27.4-4.7,39.7c1.1,23.1,9.6,43.9,24.7,60
	c11.8,12.6,33.2,28.2,68.7,30.8c16.5,1.2,35-0.2,58.3-4.6c31.1-5.8,63.9-24.9,103.2-60c30.3-27,53.9-54.3,58.3-59.5
	c65-76.3,135.9-130.5,204.8-156.7c63.1-24,123.9-24.9,180.6-2.7c27.8,10.9,46,27.8,55.7,51.6c10.6,26.2,10.8,60.5,0.5,99
	c-0.1,0.2-0.1,0.5-0.2,0.7c-0.1,0.3-0.1,0.5-0.2,0.8c-3.8,14.4-5.4,27.3-5,39.4c1.1,29.7,13.9,49.6,24.5,61
	c11.8,12.7,33.2,28.4,68.8,31c3.7,0.3,7.6,0.4,11.6,0.4c13.6,0,28.8-1.6,46.8-5c31.1-5.8,63.9-24.9,103.2-60
	c30.3-27,53.9-54.3,58.3-59.5c68.7-80.6,142.7-135.7,215.2-160.5V2047z"/>
</svg>
